<?xml version="1.0" encoding="UTF-8" standalone="no"?>
<!-- Created with Inkscape (http://www.inkscape.org/) -->

<svg
   xmlns:dc="http://purl.org/dc/elements/1.1/"
   xmlns:cc="http://creativecommons.org/ns#"
   xmlns:rdf="http://www.w3.org/1999/02/22-rdf-syntax-ns#"
   xmlns:svg="http://www.w3.org/2000/svg"
   xmlns="http://www.w3.org/2000/svg"
   xmlns:sodipodi="http://sodipodi.sourceforge.net/DTD/sodipodi-0.dtd"
   xmlns:inkscape="http://www.inkscape.org/namespaces/inkscape"
   version="1.1"
   id="svg2"
   xml:space="preserve"
   width="4424"
   height="4424"
   viewBox="0 0 4424 4424"
   sodipodi:docname="Weather.svg"
   inkscape:version="0.92.1 r15371"><metadata
     id="metadata8"><rdf:RDF><cc:Work
         rdf:about=""><dc:format>image/svg+xml</dc:format><dc:type
           rdf:resource="http://purl.org/dc/dcmitype/StillImage" /><dc:title /></cc:Work></rdf:RDF></metadata><defs
     id="defs6"><clipPath
       clipPathUnits="userSpaceOnUse"
       id="clipPath18"><path
         d="M 0,3318 H 3318 V 0 H 0 Z"
         id="path16"
         inkscape:connector-curvature="0" /></clipPath></defs><sodipodi:namedview
     pagecolor="#ffffff"
     bordercolor="#666666"
     borderopacity="1"
     objecttolerance="10"
     gridtolerance="10"
     guidetolerance="10"
     inkscape:pageopacity="0"
     inkscape:pageshadow="2"
     inkscape:window-width="1366"
     inkscape:window-height="705"
     id="namedview4"
     showgrid="false"
     inkscape:zoom="0.21338155"
     inkscape:cx="2102.7033"
     inkscape:cy="2715.1874"
     inkscape:window-x="-8"
     inkscape:window-y="-8"
     inkscape:window-maximized="1"
     inkscape:current-layer="g14" /><g
     id="g10"
     inkscape:groupmode="layer"
     inkscape:label="weather"
     transform="matrix(1.3333333,0,0,-1.3333333,0,4424)"><g
       clip-path="url(#clipPath18)"
       id="g14"><g
         transform="translate(1125.0977,2323.9023)"
         id="g20"
         style="stroke:none;stroke-opacity:1;fill-opacity:1;fill:#ffffff;stroke-width:0.99975002;stroke-miterlimit:4;stroke-dasharray:none"
         inkscape:export-xdpi="50"
         inkscape:export-ydpi="50"><path
           inkscape:connector-curvature="0"
           id="path22"
           style="fill:#ffffff;fill-opacity:1;fill-rule:nonzero;stroke:none;stroke-opacity:1;stroke-width:0.99975002;stroke-miterlimit:4;stroke-dasharray:none"
           d="m 0,0 c -44.112,0 -80,-35.888 -80,-80 0,-44.112 35.888,-80 80,-80 44.112,0 80,35.888 80,80 C 80,-35.888 44.112,0 0,0 m 0,-180 c -55.14,0 -100,44.86 -100,100 0,55.14 44.86,100 100,100 55.14,0 100,-44.86 100,-100 0,-55.14 -44.86,-100 -100,-100" /></g><g
         transform="translate(1125,2360)"
         id="g24"
         style="stroke:none;stroke-opacity:1;fill-opacity:1;fill:#ffffff;stroke-width:0.99975002;stroke-miterlimit:4;stroke-dasharray:none"
         inkscape:export-xdpi="50"
         inkscape:export-ydpi="50"><path
           inkscape:connector-curvature="0"
           id="path26"
           style="fill:#ffffff;fill-opacity:1;fill-rule:nonzero;stroke:none;stroke-opacity:1;stroke-width:0.99975002;stroke-miterlimit:4;stroke-dasharray:none"
           d="m 0,0 c -5.523,0 -10,4.477 -10,10 v 54 c 0,5.523 4.477,10 10,10 5.523,0 10,-4.477 10,-10 V 10 C 10,4.477 5.523,0 0,0" /></g><g
         transform="translate(1125,2054)"
         id="g28"
         style="stroke:none;stroke-opacity:1;fill-opacity:1;fill:#ffffff;stroke-width:0.99975002;stroke-miterlimit:4;stroke-dasharray:none"
         inkscape:export-xdpi="50"
         inkscape:export-ydpi="50"><path
           inkscape:connector-curvature="0"
           id="path30"
           style="fill:#ffffff;fill-opacity:1;fill-rule:nonzero;stroke:none;stroke-opacity:1;stroke-width:0.99975002;stroke-miterlimit:4;stroke-dasharray:none"
           d="m 0,0 c -5.523,0 -10,4.477 -10,10 v 54 c 0,5.523 4.477,10 10,10 5.523,0 10,-4.477 10,-10 V 10 C 10,4.477 5.523,0 0,0" /></g><g
         transform="translate(999,2234)"
         id="g32"
         style="stroke:none;stroke-opacity:1;fill-opacity:1;fill:#ffffff;stroke-width:0.99975002;stroke-miterlimit:4;stroke-dasharray:none"
         inkscape:export-xdpi="50"
         inkscape:export-ydpi="50"><path
           inkscape:connector-curvature="0"
           id="path34"
           style="fill:#ffffff;fill-opacity:1;fill-rule:nonzero;stroke:none;stroke-opacity:1;stroke-width:0.99975002;stroke-miterlimit:4;stroke-dasharray:none"
           d="m 0,0 h -54 c -5.523,0 -10,4.477 -10,10 0,5.523 4.477,10 10,10 H 0 C 5.523,20 10,15.523 10,10 10,4.477 5.523,0 0,0" /></g><g
         transform="translate(1305,2234)"
         id="g36"
         style="stroke:none;stroke-opacity:1;fill-opacity:1;fill:#ffffff;stroke-width:0.99975002;stroke-miterlimit:4;stroke-dasharray:none"
         inkscape:export-xdpi="50"
         inkscape:export-ydpi="50"><path
           inkscape:connector-curvature="0"
           id="path38"
           style="fill:#ffffff;fill-opacity:1;fill-rule:nonzero;stroke:none;stroke-opacity:1;stroke-width:0.99975002;stroke-miterlimit:4;stroke-dasharray:none"
           d="m 0,0 h -54 c -5.523,0 -10,4.477 -10,10 0,5.523 4.477,10 10,10 H 0 C 5.523,20 10,15.523 10,10 10,4.477 5.523,0 0,0" /></g><g
         transform="translate(1213.542,2322.542)"
         id="g40"
         style="stroke:none;stroke-opacity:1;fill-opacity:1;fill:#ffffff;stroke-width:0.99975002;stroke-miterlimit:4;stroke-dasharray:none"
         inkscape:export-xdpi="50"
         inkscape:export-ydpi="50"><path
           inkscape:connector-curvature="0"
           id="path42"
           style="fill:#ffffff;fill-opacity:1;fill-rule:nonzero;stroke:none;stroke-opacity:1;stroke-width:0.99975002;stroke-miterlimit:4;stroke-dasharray:none"
           d="m 0,0 c -2.559,0 -5.119,0.976 -7.071,2.929 -3.905,3.905 -3.905,10.237 0,14.142 l 38.737,38.738 c 3.905,3.905 10.237,3.905 14.143,0 3.904,-3.906 3.904,-10.238 0,-14.143 L 7.071,2.929 C 5.119,0.976 2.559,0 0,0" /></g><g
         transform="translate(997.7207,2106.7207)"
         id="g44"
         style="stroke:none;stroke-opacity:1;fill-opacity:1;fill:#ffffff;stroke-width:0.99975002;stroke-miterlimit:4;stroke-dasharray:none"
         inkscape:export-xdpi="50"
         inkscape:export-ydpi="50"><path
           inkscape:connector-curvature="0"
           id="path46"
           style="fill:#ffffff;fill-opacity:1;fill-rule:nonzero;stroke:none;stroke-opacity:1;stroke-width:0.99975002;stroke-miterlimit:4;stroke-dasharray:none"
           d="m 0,0 c -2.559,0 -5.119,0.976 -7.071,2.929 -3.905,3.905 -3.905,10.237 0,14.142 l 38.737,38.738 c 3.905,3.905 10.237,3.905 14.143,0 3.904,-3.906 3.904,-10.238 0,-14.143 L 7.071,2.929 C 5.119,0.976 2.559,0 0,0" /></g><g
         transform="translate(1036.458,2322.542)"
         id="g48"
         style="stroke:none;stroke-opacity:1;fill-opacity:1;fill:#ffffff;stroke-width:0.99975002;stroke-miterlimit:4;stroke-dasharray:none"
         inkscape:export-xdpi="50"
         inkscape:export-ydpi="50"><path
           inkscape:connector-curvature="0"
           id="path50"
           style="fill:#ffffff;fill-opacity:1;fill-rule:nonzero;stroke:none;stroke-opacity:1;stroke-width:0.99975002;stroke-miterlimit:4;stroke-dasharray:none"
           d="m 0,0 c -2.559,0 -5.119,0.976 -7.071,2.929 l -38.738,38.737 c -3.904,3.905 -3.904,10.237 0,14.143 3.906,3.905 10.238,3.905 14.143,0 L 7.071,17.071 C 10.976,13.166 10.976,6.834 7.071,2.929 5.119,0.976 2.559,0 0,0" /></g><g
         transform="translate(1252.2793,2106.7207)"
         id="g52"
         style="stroke:none;stroke-opacity:1;fill-opacity:1;fill:#ffffff;stroke-width:0.99975002;stroke-miterlimit:4;stroke-dasharray:none"
         inkscape:export-xdpi="50"
         inkscape:export-ydpi="50"><path
           inkscape:connector-curvature="0"
           id="path54"
           style="fill:#ffffff;fill-opacity:1;fill-rule:nonzero;stroke:none;stroke-opacity:1;stroke-width:0.99975002;stroke-miterlimit:4;stroke-dasharray:none"
           d="m 0,0 c -2.559,0 -5.119,0.976 -7.071,2.929 l -38.738,38.737 c -3.904,3.905 -3.904,10.237 0,14.143 3.906,3.905 10.238,3.905 14.143,0 L 7.071,17.071 C 10.976,13.166 10.976,6.834 7.071,2.929 5.119,0.976 2.559,0 0,0" /></g><g
         transform="translate(1762.7979,2193.9995)"
         id="g56"
         style="stroke:none;stroke-opacity:1;fill-opacity:1;fill:#ffffff;stroke-width:0.99975002;stroke-miterlimit:4;stroke-dasharray:none"
         inkscape:export-xdpi="50"
         inkscape:export-ydpi="50"><path
           inkscape:connector-curvature="0"
           id="path58"
           style="fill:#ffffff;fill-opacity:1;fill-rule:nonzero;stroke:none;stroke-opacity:1;stroke-width:0.99975002;stroke-miterlimit:4;stroke-dasharray:none"
           d="m 0,0 c -2.908,0 -5.792,1.263 -7.769,3.697 -3.481,4.287 -2.828,10.585 1.459,14.066 18.818,15.281 29.61,37.93 29.61,62.14 0,44.112 -35.888,80 -80,80 -40.803,0 -74.981,-30.528 -79.502,-71.011 -0.612,-5.489 -5.557,-9.439 -11.048,-8.829 -5.488,0.613 -9.441,5.559 -8.828,11.048 5.652,50.619 48.375,88.792 99.378,88.792 55.14,0 100,-44.86 100,-100 C 43.3,49.642 29.813,21.333 6.298,2.238 4.444,0.732 2.215,0 0,0" /></g><g
         transform="translate(1706,2390)"
         id="g60"
         style="stroke:none;stroke-opacity:1;fill-opacity:1;fill:#ffffff;stroke-width:0.99975002;stroke-miterlimit:4;stroke-dasharray:none"
         inkscape:export-xdpi="50"
         inkscape:export-ydpi="50"><path
           inkscape:connector-curvature="0"
           id="path62"
           style="fill:#ffffff;fill-opacity:1;fill-rule:nonzero;stroke:none;stroke-opacity:1;stroke-width:0.99975002;stroke-miterlimit:4;stroke-dasharray:none"
           d="m 0,0 c -5.522,0 -10,4.477 -10,10 v 54 c 0,5.523 4.478,10 10,10 5.522,0 10,-4.477 10,-10 V 10 C 10,4.477 5.522,0 0,0" /></g><g
         transform="translate(1580,2264)"
         id="g64"
         style="stroke:none;stroke-opacity:1;fill-opacity:1;fill:#ffffff;stroke-width:0.99975002;stroke-miterlimit:4;stroke-dasharray:none"
         inkscape:export-xdpi="50"
         inkscape:export-ydpi="50"><path
           inkscape:connector-curvature="0"
           id="path66"
           style="fill:#ffffff;fill-opacity:1;fill-rule:nonzero;stroke:none;stroke-opacity:1;stroke-width:0.99975002;stroke-miterlimit:4;stroke-dasharray:none"
           d="m 0,0 h -54 c -5.523,0 -10,4.477 -10,10 0,5.523 4.477,10 10,10 H 0 C 5.523,20 10,15.523 10,10 10,4.477 5.523,0 0,0" /></g><g
         transform="translate(1886,2264)"
         id="g68"
         style="stroke:none;stroke-opacity:1;fill-opacity:1;fill:#ffffff;stroke-width:0.99975002;stroke-miterlimit:4;stroke-dasharray:none"
         inkscape:export-xdpi="50"
         inkscape:export-ydpi="50"><path
           inkscape:connector-curvature="0"
           id="path70"
           style="fill:#ffffff;fill-opacity:1;fill-rule:nonzero;stroke:none;stroke-opacity:1;stroke-width:0.99975002;stroke-miterlimit:4;stroke-dasharray:none"
           d="m 0,0 h -54 c -5.522,0 -10,4.477 -10,10 0,5.523 4.478,10 10,10 H 0 C 5.522,20 10,15.523 10,10 10,4.477 5.522,0 0,0" /></g><g
         transform="translate(1794.542,2352.542)"
         id="g72"
         style="stroke:none;stroke-opacity:1;fill-opacity:1;fill:#ffffff;stroke-width:0.99975002;stroke-miterlimit:4;stroke-dasharray:none"
         inkscape:export-xdpi="50"
         inkscape:export-ydpi="50"><path
           inkscape:connector-curvature="0"
           id="path74"
           style="fill:#ffffff;fill-opacity:1;fill-rule:nonzero;stroke:none;stroke-opacity:1;stroke-width:0.99975002;stroke-miterlimit:4;stroke-dasharray:none"
           d="m 0,0 c -2.56,0 -5.118,0.976 -7.071,2.929 -3.906,3.905 -3.906,10.237 0,14.142 l 38.737,38.738 c 3.906,3.905 10.236,3.905 14.143,0 3.905,-3.906 3.905,-10.238 0,-14.143 L 7.071,2.929 C 5.118,0.976 2.56,0 0,0" /></g><g
         transform="translate(1617.458,2352.542)"
         id="g76"
         style="stroke:none;stroke-opacity:1;fill-opacity:1;fill:#ffffff;stroke-width:0.99975002;stroke-miterlimit:4;stroke-dasharray:none"
         inkscape:export-xdpi="50"
         inkscape:export-ydpi="50"><path
           inkscape:connector-curvature="0"
           id="path78"
           style="fill:#ffffff;fill-opacity:1;fill-rule:nonzero;stroke:none;stroke-opacity:1;stroke-width:0.99975002;stroke-miterlimit:4;stroke-dasharray:none"
           d="m 0,0 c -2.559,0 -5.119,0.976 -7.071,2.929 l -38.738,38.737 c -3.904,3.905 -3.904,10.237 0,14.143 3.906,3.905 10.238,3.905 14.143,0 L 7.071,17.071 C 10.976,13.166 10.976,6.834 7.071,2.929 5.119,0.976 2.559,0 0,0" /></g><g
         transform="translate(1833.2793,2136.7207)"
         id="g80"
         style="stroke:none;stroke-opacity:1;fill-opacity:1;fill:#ffffff;stroke-width:0.99975002;stroke-miterlimit:4;stroke-dasharray:none"
         inkscape:export-xdpi="50"
         inkscape:export-ydpi="50"><path
           inkscape:connector-curvature="0"
           id="path82"
           style="fill:#ffffff;fill-opacity:1;fill-rule:nonzero;stroke:none;stroke-opacity:1;stroke-width:0.99975002;stroke-miterlimit:4;stroke-dasharray:none"
           d="m 0,0 c -2.56,0 -5.118,0.976 -7.071,2.929 l -38.738,38.737 c -3.905,3.905 -3.905,10.237 0,14.143 3.907,3.905 10.237,3.905 14.143,0 L 7.071,17.071 C 10.977,13.166 10.977,6.834 7.071,2.929 5.118,0.976 2.56,0 0,0" /></g><g
         transform="translate(1537.3755,2218.4385)"
         id="g84"
         style="stroke:none;stroke-opacity:1;fill-opacity:1;fill:#ffffff;stroke-width:0.99975002;stroke-miterlimit:4;stroke-dasharray:none"
         inkscape:export-xdpi="50"
         inkscape:export-ydpi="50"><path
           inkscape:connector-curvature="0"
           id="path86"
           style="fill:#ffffff;fill-opacity:1;fill-rule:nonzero;stroke:none;stroke-opacity:1;stroke-width:0.99975002;stroke-miterlimit:4;stroke-dasharray:none"
           d="m 0,0 c -15.225,0 -27.611,-12.386 -27.611,-27.61 0,-4.344 0.986,-8.507 2.93,-12.374 1.527,-3.037 1.407,-6.642 -0.32,-9.571 -1.727,-2.928 -4.823,-4.779 -8.22,-4.913 -26.862,-1.061 -47.904,-23.008 -47.904,-49.964 0,-27.393 22.332,-49.826 49.782,-50.006 l 240.801,0.004 c 27.204,0.269 49.417,22.7 49.417,50.002 0,27.579 -22.438,50.017 -50.017,50.017 -1.027,0 -2.145,-0.044 -3.515,-0.14 -2.646,-0.181 -5.274,0.697 -7.277,2.45 -2.003,1.752 -3.226,4.23 -3.396,6.886 -2.893,45.1 -40.598,80.428 -85.84,80.428 -30.34,0 -57.859,-15.508 -73.614,-41.485 -1.594,-2.63 -4.311,-4.38 -7.365,-4.745 -3.054,-0.36 -6.106,0.697 -8.275,2.878 C 14.354,-2.892 7.401,0 0,0 m -31.409,-174.438 c -38.471,0.253 -69.716,31.658 -69.716,70.006 0,33.324 22.986,61.18 54.278,68.263 -0.508,2.799 -0.764,5.655 -0.764,8.559 0,26.252 21.358,47.61 47.611,47.61 8.72,0 17.078,-2.327 24.37,-6.688 19.981,26.423 50.812,41.897 84.46,41.897 52.588,0 96.916,-38.738 104.781,-89.784 36.398,-2.452 65.264,-32.847 65.264,-69.857 0,-38.222 -31.096,-69.625 -69.319,-70.001 z" /></g><g
         transform="translate(2868.5322,2244.4995)"
         id="g88"
         style="stroke:none;stroke-opacity:1;fill-opacity:1;fill:#ffffff;stroke-width:0.99975002;stroke-miterlimit:4;stroke-dasharray:none"><path
           inkscape:connector-curvature="0"
           id="path90"
           style="fill:#ffffff;fill-opacity:1;fill-rule:nonzero;stroke:none;stroke-opacity:1;stroke-width:0.99975002;stroke-miterlimit:4;stroke-dasharray:none"
           d="m 0,0 c -2.516,0 -5.026,0.993 -6.895,2.962 -3.61,3.807 -3.452,9.819 0.355,13.43 14.49,13.746 22.471,32.311 22.471,52.275 0,39.722 -32.317,72.038 -72.038,72.038 -34.889,0 -64.702,-24.873 -70.889,-59.142 -0.933,-5.163 -5.877,-8.592 -11.036,-7.661 -5.164,0.932 -8.594,5.873 -7.661,11.036 7.821,43.323 45.498,74.767 89.586,74.767 50.198,0 91.038,-40.839 91.038,-91.038 C 34.931,43.438 24.847,19.977 6.536,2.608 4.699,0.865 2.347,0 0,0" /></g><g
         transform="translate(2784.2686,2412.1724)"
         id="g92"
         style="stroke:none;stroke-opacity:1;fill-opacity:1;fill:#ffffff;stroke-width:0.99975002;stroke-miterlimit:4;stroke-dasharray:none"><path
           inkscape:connector-curvature="0"
           id="path94"
           style="fill:#ffffff;fill-opacity:1;fill-rule:nonzero;stroke:none;stroke-opacity:1;stroke-width:0.99975002;stroke-miterlimit:4;stroke-dasharray:none"
           d="m 0,0 c -4.37,0 -8.304,3.033 -9.272,7.477 l -10.019,45.92 c -1.119,5.126 2.13,10.188 7.256,11.307 5.136,1.119 10.189,-2.132 11.306,-7.257 L 9.29,11.527 C 10.409,6.401 7.16,1.339 2.034,0.22 1.352,0.071 0.67,0 0,0" /></g><g
         transform="translate(2923.9004,2323.395)"
         id="g96"
         style="fill:#ffffff;fill-opacity:1;stroke-width:0.99975002;stroke-miterlimit:4;stroke-dasharray:none;stroke:none"><path
           inkscape:connector-curvature="0"
           id="path98"
           style="fill:#ffffff;fill-opacity:1;fill-rule:nonzero;stroke:none;stroke-width:0.99975002;stroke-miterlimit:4;stroke-dasharray:none"
           d="m 0,0 c -4.37,0 -8.304,3.033 -9.272,7.477 -1.12,5.126 2.129,10.188 7.255,11.307 l 48.851,10.657 c 5.137,1.12 10.189,-2.131 11.307,-7.256 1.119,-5.126 -2.13,-10.188 -7.256,-11.307 L 2.034,0.22 C 1.352,0.071 0.67,0 0,0" /></g><g
         transform="translate(2872.7725,2396.1426)"
         id="g100"
         style="stroke:none;stroke-opacity:1;fill-opacity:1;fill:#ffffff;stroke-width:0.99975002;stroke-miterlimit:4;stroke-dasharray:none"><path
           inkscape:connector-curvature="0"
           id="path102"
           style="fill:#ffffff;fill-opacity:1;fill-rule:nonzero;stroke:none;stroke-opacity:1;stroke-width:0.99975002;stroke-miterlimit:4;stroke-dasharray:none"
           d="m 0,0 c -1.757,0 -3.534,0.486 -5.123,1.506 -4.415,2.834 -5.697,8.711 -2.863,13.126 l 26.808,41.769 c 2.834,4.416 8.71,5.698 13.127,2.864 4.415,-2.834 5.697,-8.711 2.864,-13.126 L 8.004,4.37 C 6.189,1.542 3.127,0 0,0" /></g><g
         transform="translate(2716.0254,2361.9453)"
         id="g104"
         style="stroke:none;stroke-opacity:1;fill-opacity:1;fill:#ffffff;stroke-width:0.99975002;stroke-miterlimit:4;stroke-dasharray:none"><path
           inkscape:connector-curvature="0"
           id="path106"
           style="fill:#ffffff;fill-opacity:1;fill-rule:nonzero;stroke:none;stroke-opacity:1;stroke-width:0.99975002;stroke-miterlimit:4;stroke-dasharray:none"
           d="m 0,0 c -1.757,0 -3.534,0.486 -5.122,1.506 l -41.77,26.808 c -4.416,2.834 -5.698,8.711 -2.864,13.126 2.834,4.416 8.711,5.698 13.126,2.864 L 5.14,17.496 C 9.556,14.662 10.838,8.785 8.004,4.37 6.189,1.542 3.127,0 0,0" /></g><g
         transform="translate(2947.7617,2212.3735)"
         id="g108"
         style="stroke:none;stroke-opacity:1;fill-opacity:1;fill:#ffffff;stroke-width:0.99975002;stroke-miterlimit:4;stroke-dasharray:none"><path
           inkscape:connector-curvature="0"
           id="path110"
           style="fill:#ffffff;fill-opacity:1;fill-rule:nonzero;stroke:none;stroke-opacity:1;stroke-width:0.99975002;stroke-miterlimit:4;stroke-dasharray:none"
           d="m 0,0 c -1.757,0 -3.534,0.486 -5.123,1.506 l -41.769,26.808 c -4.415,2.834 -5.697,8.711 -2.863,13.126 2.834,4.416 8.71,5.699 13.127,2.864 L 5.141,17.496 C 9.556,14.662 10.838,8.785 8.004,4.37 6.189,1.542 3.127,0 0,0" /></g><g
         transform="translate(2659.5654,2262.4771)"
         id="g112"
         style="stroke:none;stroke-opacity:1;fill-opacity:1;fill:#ffffff;stroke-width:0.99975002;stroke-miterlimit:4;stroke-dasharray:none"><path
           inkscape:connector-curvature="0"
           id="path114"
           style="fill:#ffffff;fill-opacity:1;fill-rule:nonzero;stroke:none;stroke-opacity:1;stroke-width:0.99975002;stroke-miterlimit:4;stroke-dasharray:none"
           d="m 0,0 c -13.55,0 -24.574,-11.024 -24.574,-24.574 0,-3.866 0.877,-7.572 2.607,-11.012 1.451,-2.886 1.337,-6.31 -0.304,-9.093 -1.639,-2.782 -4.581,-4.54 -7.808,-4.668 -24.101,-0.951 -42.979,-20.641 -42.979,-44.826 0,-24.576 20.037,-44.702 44.665,-44.865 l 218.159,0.005 c 24.401,0.241 44.33,20.365 44.33,44.86 0,24.743 -20.131,44.874 -44.874,44.874 -0.926,0 -1.928,-0.04 -3.156,-0.125 -2.53,-0.18 -5.01,0.663 -6.912,2.327 -1.903,1.665 -3.063,4.019 -3.225,6.542 -2.607,40.629 -36.574,72.454 -77.33,72.454 -27.331,0 -52.123,-13.971 -66.317,-37.374 -1.515,-2.498 -4.095,-4.16 -6.997,-4.506 -2.903,-0.345 -5.802,0.663 -7.861,2.733 C 12.775,-2.574 6.587,0 0,0 m -28.455,-158.038 c -35.099,0.231 -63.603,28.881 -63.603,63.865 0,30.256 20.771,55.569 49.11,62.18 -0.417,2.429 -0.626,4.905 -0.626,7.419 C -43.574,-0.547 -24.027,19 0,19 c 7.846,0 15.372,-2.059 21.965,-5.921 18.193,23.858 46.142,37.82 76.634,37.82 47.744,0 88.006,-35.079 95.309,-81.369 33.041,-2.406 59.188,-30.058 59.188,-63.703 0,-34.869 -28.368,-63.516 -63.237,-63.86 z" /></g><g
         transform="translate(2714.4521,2005.1782)"
         id="g116"
         style="stroke:none;stroke-opacity:1;fill-opacity:1;fill:#ffffff;stroke-width:0.99975002;stroke-miterlimit:4;stroke-dasharray:none"><path
           inkscape:connector-curvature="0"
           id="path118"
           style="fill:#ffffff;fill-opacity:1;fill-rule:nonzero;stroke:none;stroke-opacity:1;stroke-width:0.99975002;stroke-miterlimit:4;stroke-dasharray:none"
           d="m 0,0 c -2.433,0 -4.865,0.929 -6.721,2.786 -3.708,3.712 -3.705,9.727 0.007,13.435 l 22.688,22.664 c 3.712,3.708 9.726,3.705 13.434,-0.006 3.708,-3.712 3.705,-9.727 -0.007,-13.435 L 6.714,2.779 C 4.859,0.926 2.43,0 0,0" /></g><g
         transform="translate(2635.6318,2056.8188)"
         id="g120"
         style="stroke:none;stroke-opacity:1;fill-opacity:1;fill:#ffffff;stroke-width:0.99975002;stroke-miterlimit:4;stroke-dasharray:none"><path
           inkscape:connector-curvature="0"
           id="path122"
           style="fill:#ffffff;fill-opacity:1;fill-rule:nonzero;stroke:none;stroke-opacity:1;stroke-width:0.99975002;stroke-miterlimit:4;stroke-dasharray:none"
           d="m 0,0 c -2.433,0 -4.865,0.929 -6.721,2.786 -3.708,3.712 -3.705,9.727 0.007,13.435 L 7.594,30.514 c 3.711,3.707 9.725,3.705 13.434,-0.007 3.708,-3.712 3.705,-9.727 -0.007,-13.435 L 6.714,2.779 C 4.859,0.926 2.43,0 0,0" /></g><g
         transform="translate(2761.5635,2056.8188)"
         id="g124"
         style="stroke:none;stroke-opacity:1;fill-opacity:1;fill:#ffffff;stroke-width:0.99975002;stroke-miterlimit:4;stroke-dasharray:none"><path
           inkscape:connector-curvature="0"
           id="path126"
           style="fill:#ffffff;fill-opacity:1;fill-rule:nonzero;stroke:none;stroke-opacity:1;stroke-width:0.99975002;stroke-miterlimit:4;stroke-dasharray:none"
           d="m 0,0 c -2.433,0 -4.865,0.928 -6.721,2.786 -3.708,3.712 -3.705,9.727 0.007,13.435 L 7.593,30.514 c 3.712,3.707 9.726,3.705 13.434,-0.007 3.708,-3.712 3.705,-9.727 -0.006,-13.435 L 6.714,2.779 C 4.859,0.927 2.43,0 0,0" /></g><g
         transform="translate(2802.333,2034.0215)"
         id="g128"
         style="stroke:none;stroke-opacity:1;fill-opacity:1;fill:#ffffff;stroke-width:0.99975002;stroke-miterlimit:4;stroke-dasharray:none"><path
           inkscape:connector-curvature="0"
           id="path130"
           style="fill:#ffffff;fill-opacity:1;fill-rule:nonzero;stroke:none;stroke-opacity:1;stroke-width:0.99975002;stroke-miterlimit:4;stroke-dasharray:none"
           d="m 0,0 c -2.434,0 -4.866,0.929 -6.722,2.787 -3.708,3.712 -3.704,9.727 0.009,13.435 l 37.138,37.09 c 3.712,3.708 9.726,3.704 13.434,-0.008 3.708,-3.713 3.704,-9.728 -0.008,-13.435 L 6.713,2.778 C 4.858,0.926 2.43,0 0,0" /></g><g
         transform="translate(2665.5293,2024.0557)"
         id="g132"
         style="stroke:none;stroke-opacity:1;fill-opacity:1;fill:#ffffff;stroke-width:0.99975002;stroke-miterlimit:4;stroke-dasharray:none"><path
           inkscape:connector-curvature="0"
           id="path134"
           style="fill:#ffffff;fill-opacity:1;fill-rule:nonzero;stroke:none;stroke-opacity:1;stroke-width:0.99975002;stroke-miterlimit:4;stroke-dasharray:none"
           d="m 0,0 c -2.433,0 -4.865,0.929 -6.721,2.786 -3.708,3.712 -3.705,9.727 0.007,13.435 L 40.39,63.277 c 3.712,3.708 9.726,3.704 13.434,-0.006 3.708,-3.712 3.705,-9.728 -0.007,-13.436 L 6.714,2.779 C 4.859,0.926 2.43,0 0,0" /></g><g
         transform="translate(2108.375,2240.4385)"
         id="g136"
         style="stroke:none;stroke-opacity:1;fill-opacity:1;fill:#ffffff;stroke-width:0.99975002;stroke-miterlimit:4;stroke-dasharray:none"
         inkscape:export-xdpi="50"
         inkscape:export-ydpi="50"><path
           inkscape:connector-curvature="0"
           id="path138"
           style="fill:#ffffff;fill-opacity:1;fill-rule:nonzero;stroke:none;stroke-opacity:1;stroke-width:0.99975002;stroke-miterlimit:4;stroke-dasharray:none"
           d="m 0,0 c -15.225,0 -27.61,-12.386 -27.61,-27.61 0,-4.343 0.986,-8.506 2.93,-12.374 1.527,-3.037 1.407,-6.642 -0.32,-9.571 -1.727,-2.928 -4.823,-4.779 -8.22,-4.913 -26.862,-1.061 -47.905,-23.008 -47.905,-49.964 0,-27.393 22.332,-49.826 49.782,-50.006 l 240.801,0.004 c 27.204,0.269 49.417,22.7 49.417,50.002 0,27.579 -22.438,50.017 -50.017,50.017 -1.027,0 -2.144,-0.044 -3.514,-0.14 -2.645,-0.182 -5.275,0.697 -7.278,2.45 -2.003,1.752 -3.225,4.23 -3.395,6.886 -2.894,45.1 -40.6,80.428 -85.841,80.428 -30.339,0 -57.858,-15.508 -73.614,-41.486 -1.595,-2.63 -4.312,-4.379 -7.365,-4.744 -3.055,-0.362 -6.106,0.697 -8.276,2.878 C 14.354,-2.892 7.401,0 0,0 m -31.408,-174.438 c -38.472,0.253 -69.717,31.658 -69.717,70.006 0,33.324 22.986,61.18 54.279,68.262 -0.508,2.8 -0.764,5.657 -0.764,8.56 0,26.252 21.358,47.61 47.61,47.61 8.721,0 17.078,-2.327 24.37,-6.688 19.982,26.423 50.813,41.897 84.46,41.897 52.588,0 96.916,-38.738 104.781,-89.784 36.399,-2.452 65.264,-32.847 65.264,-69.857 0,-38.222 -31.096,-69.625 -69.318,-70.001 z" /></g><g
         transform="translate(2376.2402,2190.8325)"
         id="g140"
         style="stroke:none;stroke-opacity:1;fill-opacity:1;fill:#ffffff;stroke-width:0.99975002;stroke-miterlimit:4;stroke-dasharray:none"
         inkscape:export-xdpi="50"
         inkscape:export-ydpi="50"><path
           inkscape:connector-curvature="0"
           id="path142"
           style="fill:#ffffff;fill-opacity:1;fill-rule:nonzero;stroke:none;stroke-opacity:1;stroke-width:0.99975002;stroke-miterlimit:4;stroke-dasharray:none"
           d="m 0,0 c -4.533,0 -8.639,3.104 -9.725,7.708 -1.267,5.375 2.063,10.76 7.439,12.027 18.338,4.325 34.955,13.737 48.086,27.039 -22.943,5.454 -43.849,17.598 -60.151,35.183 -20.621,22.244 -31.977,51.208 -31.977,81.557 0,18.658 4.249,36.754 12.402,53.192 -23.005,-1.954 -44.47,-11.725 -61.18,-28.006 -18.743,-18.26 -29.461,-42.697 -30.183,-68.809 -0.153,-5.521 -4.738,-9.911 -10.273,-9.72 -5.52,0.152 -9.872,4.751 -9.719,10.272 0.866,31.343 13.728,60.671 36.218,82.582 22.532,21.954 52.27,34.044 83.735,34.044 3.206,0 6.49,-0.133 9.759,-0.396 3.577,-0.288 6.725,-2.47 8.251,-5.719 1.524,-3.248 1.191,-7.065 -0.872,-10 -11.867,-16.878 -18.138,-36.74 -18.138,-57.44 0,-25.291 9.463,-49.426 26.644,-67.96 17.091,-18.436 40.247,-29.697 65.203,-31.708 3.576,-0.288 6.724,-2.471 8.249,-5.719 1.524,-3.249 1.191,-7.065 -0.872,-10 C 55.932,24 30.861,7.003 2.304,0.27 1.532,0.087 0.76,0 0,0" /></g><g
         transform="translate(2667.9785,1660.9473)"
         id="g144"
         style="stroke:none;stroke-opacity:1;fill-opacity:1;fill:#ffffff;stroke-width:0.99975002;stroke-miterlimit:4;stroke-dasharray:none"><path
           inkscape:connector-curvature="0"
           id="path146"
           style="fill:#ffffff;fill-opacity:1;fill-rule:nonzero;stroke:none;stroke-opacity:1;stroke-width:0.99975002;stroke-miterlimit:4;stroke-dasharray:none"
           d="m 0,0 c -13.574,0 -24.618,-11.044 -24.618,-24.619 0,-3.872 0.879,-7.584 2.612,-11.032 1.527,-3.037 1.406,-6.642 -0.32,-9.571 -1.727,-2.928 -4.823,-4.778 -8.22,-4.913 -24.297,-0.959 -43.33,-20.811 -43.33,-45.194 0,-24.778 20.201,-45.069 45.032,-45.233 l 221.641,0.004 c 24.598,0.243 44.689,20.533 44.689,45.229 0,24.947 -20.296,45.243 -45.242,45.243 -0.928,0 -1.938,-0.04 -3.181,-0.127 -2.665,-0.185 -5.274,0.698 -7.276,2.45 -2.003,1.752 -3.225,4.23 -3.395,6.886 C 175.755,0.218 141.397,32.409 100.174,32.409 72.528,32.409 47.452,18.277 33.095,-5.395 31.5,-8.024 28.783,-9.774 25.729,-10.138 22.677,-10.5 19.624,-9.441 17.454,-7.26 12.799,-2.578 6.6,0 0,0 m -28.91,-160.562 c -35.852,0.236 -64.966,29.5 -64.966,65.233 0,30.79 21.062,56.57 49.845,63.437 -0.391,2.384 -0.587,4.811 -0.587,7.273 C -44.618,-0.016 -24.603,20 0,20 c 7.93,0 15.539,-2.053 22.227,-5.908 18.552,24.176 46.962,38.317 77.947,38.317 48.584,0 89.57,-35.631 97.133,-82.69 33.617,-2.593 60.179,-30.777 60.179,-65.048 0,-35.616 -28.975,-64.877 -64.59,-65.229 z" /></g><g
         transform="translate(2921.2471,1617.1157)"
         id="g148"
         style="fill:#ffffff;fill-opacity:1;stroke-width:0.99975002;stroke-miterlimit:4;stroke-dasharray:none;stroke:none"><path
           inkscape:connector-curvature="0"
           id="path150"
           style="fill:#ffffff;fill-opacity:1;fill-rule:nonzero;stroke:none;stroke-width:0.99975002;stroke-miterlimit:4;stroke-dasharray:none"
           d="m 0,0 c -4.267,0 -8.218,2.751 -9.548,7.04 -1.637,5.275 1.314,10.877 6.588,12.514 13.819,4.286 26.483,11.917 36.818,22.036 -20.718,5.212 -39.583,16.331 -54.362,32.274 -19.117,20.621 -29.645,47.474 -29.645,75.61 0,16.816 3.722,33.137 10.874,48.035 -19.75,-1.994 -38.281,-10.347 -52.949,-24.018 -16.855,-15.71 -27.082,-36.966 -28.794,-59.853 -0.411,-5.508 -5.223,-9.647 -10.717,-9.226 -5.507,0.412 -9.638,5.21 -9.226,10.718 2.088,27.919 14.554,53.841 35.101,72.992 20.654,19.25 47.587,29.852 75.836,29.852 2.976,0 6.02,-0.124 9.047,-0.368 3.577,-0.289 6.725,-2.471 8.249,-5.719 1.525,-3.249 1.192,-7.065 -0.872,-10 -10.827,-15.4 -16.549,-33.524 -16.549,-52.413 0,-23.078 8.634,-45.101 24.312,-62.014 15.595,-16.822 36.725,-27.097 59.496,-28.932 3.576,-0.289 6.725,-2.471 8.249,-5.719 1.525,-3.249 1.192,-7.065 -0.872,-10 C 46.92,22.731 26.297,7.688 2.966,0.451 1.979,0.146 0.98,0 0,0" /></g><g
         transform="translate(2729.2656,1396.873)"
         id="g152"
         style="stroke:none;stroke-opacity:1;fill-opacity:1;fill:#ffffff;stroke-width:0.99975002;stroke-miterlimit:4;stroke-dasharray:none"><path
           inkscape:connector-curvature="0"
           id="path154"
           style="fill:#ffffff;fill-opacity:1;fill-rule:nonzero;stroke:none;stroke-opacity:1;stroke-width:0.99975002;stroke-miterlimit:4;stroke-dasharray:none"
           d="m 0,0 c -2.562,0 -5.122,0.978 -7.074,2.933 -3.904,3.907 -3.901,10.239 0.007,14.141 l 23.049,23.027 c 3.908,3.903 10.241,3.9 14.142,-0.007 3.903,-3.907 3.9,-10.24 -0.007,-14.142 L 7.067,2.926 C 5.115,0.976 2.558,0 0,0" /></g><g
         transform="translate(2649.1855,1449.3389)"
         id="g156"
         style="stroke:none;stroke-opacity:1;fill-opacity:1;fill:#ffffff;stroke-width:0.99975002;stroke-miterlimit:4;stroke-dasharray:none"><path
           inkscape:connector-curvature="0"
           id="path158"
           style="fill:#ffffff;fill-opacity:1;fill-rule:nonzero;stroke:none;stroke-opacity:1;stroke-width:0.99975002;stroke-miterlimit:4;stroke-dasharray:none"
           d="m 0,0 c -2.562,0 -5.122,0.978 -7.075,2.933 -3.903,3.907 -3.9,10.239 0.008,14.142 L 7.469,31.596 c 3.907,3.903 10.239,3.899 14.142,-0.008 3.903,-3.907 3.9,-10.239 -0.007,-14.143 L 7.067,2.925 C 5.115,0.975 2.558,0 0,0" /></g><g
         transform="translate(2777.1289,1449.3389)"
         id="g160"
         style="stroke:none;stroke-opacity:1;fill-opacity:1;fill:#ffffff;stroke-width:0.99975002;stroke-miterlimit:4;stroke-dasharray:none"><path
           inkscape:connector-curvature="0"
           id="path162"
           style="fill:#ffffff;fill-opacity:1;fill-rule:nonzero;stroke:none;stroke-opacity:1;stroke-width:0.99975002;stroke-miterlimit:4;stroke-dasharray:none"
           d="m 0,0 c -2.562,0 -5.121,0.978 -7.074,2.933 -3.904,3.907 -3.901,10.238 0.007,14.141 L 7.468,31.595 c 3.907,3.903 10.238,3.9 14.141,-0.007 C 25.513,27.681 25.51,21.35 21.603,17.446 L 7.067,2.926 C 5.115,0.976 2.558,0 0,0" /></g><g
         transform="translate(2818.5488,1426.1768)"
         id="g164"
         style="stroke:none;stroke-opacity:1;fill-opacity:1;fill:#ffffff;stroke-width:0.99975002;stroke-miterlimit:4;stroke-dasharray:none"><path
           inkscape:connector-curvature="0"
           id="path166"
           style="fill:#ffffff;fill-opacity:1;fill-rule:nonzero;stroke:none;stroke-opacity:1;stroke-width:0.99975002;stroke-miterlimit:4;stroke-dasharray:none"
           d="m 0,0 c -2.562,0 -5.123,0.978 -7.075,2.934 -3.904,3.907 -3.9,10.239 0.009,14.141 l 37.731,37.683 c 3.908,3.904 10.241,3.899 14.142,-0.009 C 48.71,50.842 48.706,44.51 44.798,40.607 L 7.066,2.925 C 5.114,0.975 2.557,0 0,0" /></g><g
         transform="translate(2679.5605,1416.0518)"
         id="g168"
         style="stroke:none;stroke-opacity:1;fill-opacity:1;fill:#ffffff;stroke-width:0.99975002;stroke-miterlimit:4;stroke-dasharray:none"><path
           inkscape:connector-curvature="0"
           id="path170"
           style="fill:#ffffff;fill-opacity:1;fill-rule:nonzero;stroke:none;stroke-opacity:1;stroke-width:0.99975002;stroke-miterlimit:4;stroke-dasharray:none"
           d="m 0,0 c -2.562,0 -5.122,0.978 -7.074,2.933 -3.904,3.907 -3.901,10.239 0.007,14.141 l 47.856,47.808 c 3.907,3.903 10.24,3.9 14.142,-0.007 3.903,-3.907 3.9,-10.239 -0.007,-14.142 L 7.067,2.926 C 5.115,0.976 2.558,0 0,0" /></g><g
         transform="translate(2335,1606)"
         id="g172"
         style="stroke:none;stroke-opacity:1;fill-opacity:1;fill:#ffffff;stroke-width:0.99975002;stroke-miterlimit:4;stroke-dasharray:none"><path
           inkscape:connector-curvature="0"
           id="path174"
           style="fill:#ffffff;fill-opacity:1;fill-rule:nonzero;stroke:none;stroke-opacity:1;stroke-width:0.99975002;stroke-miterlimit:4;stroke-dasharray:none"
           d="m 0,0 h -253.082 c -19.672,0 -36.292,16.939 -36.292,36.989 0,20.396 16.254,36.99 36.232,36.99 19.963,0 36.204,-16.485 36.204,-36.747 0,-5.523 -4.478,-10 -10,-10 -5.523,0 -10,4.477 -10,10 0,9.078 -7.42,16.747 -16.204,16.747 -8.798,0 -16.232,-7.78 -16.232,-16.99 0,-9.209 7.461,-16.989 16.292,-16.989 L 0,20 C 5.522,20 10,15.523 10,10 10,4.477 5.522,0 0,0" /></g><g
         transform="translate(2386,1649)"
         id="g176"
         style="stroke:none;stroke-opacity:1;fill-opacity:1;fill:#ffffff;stroke-width:0.99975002;stroke-miterlimit:4;stroke-dasharray:none"><path
           inkscape:connector-curvature="0"
           id="path178"
           style="fill:#ffffff;fill-opacity:1;fill-rule:nonzero;stroke:none;stroke-opacity:1;stroke-width:0.99975002;stroke-miterlimit:4;stroke-dasharray:none"
           d="m 0,0 h -204.862 c -25.126,0 -45.568,20.643 -45.568,46.017 0,25.374 20.349,46.018 45.361,46.018 24.955,0 45.257,-20.561 45.257,-45.833 0,-5.523 -4.478,-10 -10,-10 -5.523,0 -10,4.477 -10,10 0,14.244 -11.331,25.833 -25.257,25.833 -13.984,0 -25.361,-11.672 -25.361,-26.018 0,-14.102 11.708,-26.017 25.568,-26.017 L 0,20 C 5.522,20 10,15.523 10,10 10,4.477 5.522,0 0,0" /></g><g
         transform="translate(2114.3643,1494.1768)"
         id="g180"
         style="stroke:none;stroke-opacity:1;fill-opacity:1;fill:#ffffff;stroke-width:0.99975002;stroke-miterlimit:4;stroke-dasharray:none"><path
           inkscape:connector-curvature="0"
           id="path182"
           style="fill:#ffffff;fill-opacity:1;fill-rule:nonzero;stroke:none;stroke-opacity:1;stroke-width:0.99975002;stroke-miterlimit:4;stroke-dasharray:none"
           d="m 0,0 c -12.139,0 -23.521,4.606 -32.053,12.971 -8.615,8.446 -13.36,19.79 -13.36,31.94 0,24.765 20.418,44.912 45.515,44.912 h 249.534 c 5.522,0 10,-4.477 10,-10 0,-5.522 -4.478,-10 -10,-10 H 0.102 c -14.308,0 -25.515,-10.942 -25.515,-24.912 C -25.413,30.942 -14.25,20 0,20 c 14.222,0 25.362,11.023 25.362,25.096 0,5.522 4.478,10 10,10 5.523,0 10,-4.478 10,-10 C 45.362,20.229 25.013,0 0,0" /></g><g
         transform="translate(2363.708,1041)"
         id="g184"
         style="stroke:none;stroke-opacity:1;fill-opacity:1;fill:#ffffff;stroke-width:0.99975002;stroke-miterlimit:4;stroke-dasharray:none"><path
           inkscape:connector-curvature="0"
           id="path186"
           style="fill:#ffffff;fill-opacity:1;fill-rule:nonzero;stroke:none;stroke-opacity:1;stroke-width:0.99975002;stroke-miterlimit:4;stroke-dasharray:none"
           d="m 0,0 h -252.708 c -5.522,0 -10,4.478 -10,10 0,5.522 4.478,10 10,10 H 0 c 8.856,0 16.339,7.608 16.339,16.614 0,9.161 -7.261,16.615 -16.186,16.615 -8.882,0 -16.109,-7.401 -16.109,-16.497 0,-5.522 -4.478,-10 -10,-10 -5.523,0 -10,4.478 -10,10 0,20.124 16.198,36.497 36.109,36.497 19.953,0 36.186,-16.425 36.186,-36.615 C 36.339,16.425 20.037,0 0,0" /></g><g
         transform="translate(2264.4883,1084)"
         id="g188"
         style="stroke:none;stroke-opacity:1;fill-opacity:1;fill:#ffffff;stroke-width:0.99975002;stroke-miterlimit:4;stroke-dasharray:none"><path
           inkscape:connector-curvature="0"
           id="path190"
           style="fill:#ffffff;fill-opacity:1;fill-rule:nonzero;stroke:none;stroke-opacity:1;stroke-width:0.99975002;stroke-miterlimit:4;stroke-dasharray:none"
           d="m 0,0 h -204.488 c -5.523,0 -10,4.478 -10,10 0,5.522 4.477,10 10,10 H 0 c 14.124,0 25.614,11.503 25.614,25.643 0,14.138 -11.355,25.641 -25.313,25.641 -13.875,0 -25.163,-11.475 -25.163,-25.582 0,-5.522 -4.478,-10 -10,-10 -5.523,0 -10,4.478 -10,10 0,25.134 20.259,45.582 45.163,45.582 24.986,0 45.313,-20.474 45.313,-45.641 C 45.614,20.476 25.151,0 0,0" /></g><g
         transform="translate(2349.3555,928.4268)"
         id="g192"
         style="stroke:none;stroke-opacity:1;fill-opacity:1;fill:#ffffff;stroke-width:0.99975002;stroke-miterlimit:4;stroke-dasharray:none"><path
           inkscape:connector-curvature="0"
           id="path194"
           style="fill:#ffffff;fill-opacity:1;fill-rule:nonzero;stroke:none;stroke-opacity:1;stroke-width:0.99975002;stroke-miterlimit:4;stroke-dasharray:none"
           d="m 0,0 c -24.961,0 -45.269,20.342 -45.269,45.346 0,5.522 4.478,10 10,10 5.523,0 10,-4.478 10,-10 C -25.269,31.37 -13.934,20 0,20 c 13.987,0 25.367,11.344 25.367,25.286 0,13.943 -11.467,25.287 -25.562,25.287 h -269.16 c -5.523,0 -10,4.478 -10,10 0,5.523 4.477,10 10,10 h 269.16 c 25.123,0 45.562,-20.315 45.562,-45.287 C 45.367,20.315 25.016,0 0,0" /></g><g
         transform="translate(2182.958,875.0605)"
         id="g196"
         style="stroke:none;stroke-opacity:1;fill-opacity:1;fill:#ffffff;stroke-width:0.99975002;stroke-miterlimit:4;stroke-dasharray:none"><path
           inkscape:connector-curvature="0"
           id="path198"
           style="fill:#ffffff;fill-opacity:1;fill-rule:nonzero;stroke:none;stroke-opacity:1;stroke-width:0.99975002;stroke-miterlimit:4;stroke-dasharray:none"
           d="m 0,0 c -2.562,0 -5.122,0.978 -7.074,2.933 -3.904,3.907 -3.901,10.239 0.007,14.141 l 25.042,25.017 c 3.907,3.903 10.24,3.9 14.141,-0.007 3.904,-3.907 3.901,-10.239 -0.007,-14.142 L 7.067,2.926 C 5.115,0.976 2.558,0 0,0" /></g><g
         transform="translate(2095.958,932.0605)"
         id="g200"
         style="stroke:none;stroke-opacity:1;fill-opacity:1;fill:#ffffff;stroke-width:0.99975002;stroke-miterlimit:4;stroke-dasharray:none"><path
           inkscape:connector-curvature="0"
           id="path202"
           style="fill:#ffffff;fill-opacity:1;fill-rule:nonzero;stroke:none;stroke-opacity:1;stroke-width:0.99975002;stroke-miterlimit:4;stroke-dasharray:none"
           d="m 0,0 c -2.562,0 -5.121,0.978 -7.074,2.933 -3.904,3.907 -3.901,10.238 0.007,14.141 L 8.725,32.851 c 3.907,3.903 10.238,3.9 14.141,-0.007 3.904,-3.907 3.901,-10.239 -0.007,-14.142 L 7.067,2.926 C 5.115,0.976 2.558,0 0,0" /></g><g
         transform="translate(2234.958,932.0605)"
         id="g204"
         style="stroke:none;stroke-opacity:1;fill-opacity:1;fill:#ffffff;stroke-width:0.99975002;stroke-miterlimit:4;stroke-dasharray:none"><path
           inkscape:connector-curvature="0"
           id="path206"
           style="fill:#ffffff;fill-opacity:1;fill-rule:nonzero;stroke:none;stroke-opacity:1;stroke-width:0.99975002;stroke-miterlimit:4;stroke-dasharray:none"
           d="m 0,0 c -2.562,0 -5.121,0.978 -7.074,2.933 -3.904,3.907 -3.901,10.238 0.007,14.141 L 8.725,32.851 c 3.907,3.903 10.238,3.9 14.141,-0.007 3.904,-3.907 3.901,-10.239 -0.007,-14.142 L 7.067,2.926 C 5.115,0.976 2.558,0 0,0" /></g><g
         transform="translate(2277.958,893.8975)"
         id="g208"
         style="stroke:none;stroke-opacity:1;fill-opacity:1;fill:#ffffff;stroke-width:0.99975002;stroke-miterlimit:4;stroke-dasharray:none"><path
           inkscape:connector-curvature="0"
           id="path210"
           style="fill:#ffffff;fill-opacity:1;fill-rule:nonzero;stroke:none;stroke-opacity:1;stroke-width:0.99975002;stroke-miterlimit:4;stroke-dasharray:none"
           d="m 0,0 c -2.563,0 -5.127,0.979 -7.081,2.938 -3.899,3.912 -3.891,10.243 0.019,14.143 l 18.993,18.94 c 3.911,3.898 10.241,3.892 14.142,-0.02 3.9,-3.911 3.891,-10.242 -0.019,-14.143 L 7.062,2.919 C 5.109,0.973 2.555,0 0,0" /></g><g
         transform="translate(2128.958,895.8975)"
         id="g212"
         style="stroke:none;stroke-opacity:1;fill-opacity:1;fill:#ffffff;stroke-width:0.99975002;stroke-miterlimit:4;stroke-dasharray:none"><path
           inkscape:connector-curvature="0"
           id="path214"
           style="fill:#ffffff;fill-opacity:1;fill-rule:nonzero;stroke:none;stroke-opacity:1;stroke-width:0.99975002;stroke-miterlimit:4;stroke-dasharray:none"
           d="m 0,0 c -2.562,0 -5.122,0.978 -7.074,2.933 -3.904,3.907 -3.901,10.238 0.007,14.141 l 51.992,51.94 c 3.907,3.903 10.24,3.9 14.141,-0.007 C 62.97,65.1 62.967,58.769 59.06,54.865 L 7.067,2.926 C 5.115,0.976 2.558,0 0,0" /></g><g
         transform="translate(2959.708,977)"
         id="g216"
         style="fill:#ffffff;fill-opacity:1;stroke-width:0.99975002;stroke-miterlimit:4;stroke-dasharray:none;stroke:none"><path
           inkscape:connector-curvature="0"
           id="path218"
           style="fill:#ffffff;fill-opacity:1;fill-rule:nonzero;stroke:none;stroke-width:0.99975002;stroke-miterlimit:4;stroke-dasharray:none"
           d="m 0,0 h -317.708 c -5.522,0 -10,4.478 -10,10 0,5.522 4.478,10 10,10 H 0 c 8.891,0 16.401,7.608 16.401,16.614 0,9.161 -7.232,16.615 -16.123,16.615 -8.813,0 -15.984,-7.401 -15.984,-16.497 0,-5.522 -4.478,-10 -10,-10 -5.523,0 -10,4.478 -10,10 0,20.124 16.143,36.497 35.984,36.497 19.918,0 36.123,-16.425 36.123,-36.615 C 36.401,16.425 20.072,0 0,0" /></g><g
         transform="translate(2885.6055,864.4268)"
         id="g220"
         style="stroke:none;stroke-opacity:1;fill-opacity:1;fill:#ffffff;stroke-width:0.99975002;stroke-miterlimit:4;stroke-dasharray:none"><path
           inkscape:connector-curvature="0"
           id="path222"
           style="fill:#ffffff;fill-opacity:1;fill-rule:nonzero;stroke:none;stroke-opacity:1;stroke-width:0.99975002;stroke-miterlimit:4;stroke-dasharray:none"
           d="m 0,0 c -12.147,0 -23.502,4.725 -31.971,13.303 -8.414,8.523 -13.048,19.903 -13.048,32.043 0,5.522 4.478,10 10,10 5.523,0 10,-4.478 10,-10 C -25.019,31.133 -14.029,20 0,20 c 14.154,0 25.242,11.107 25.242,25.286 0,13.943 -11.523,25.287 -25.687,25.287 h -268.16 c -5.523,0 -10,4.478 -10,10 0,5.523 4.477,10 10,10 h 268.16 c 25.192,0 45.687,-20.315 45.687,-45.287 C 45.242,20.315 24.946,0 0,0" /></g><g
         transform="translate(2776.1602,1014)"
         id="g224"
         style="stroke:none;stroke-opacity:1;fill-opacity:1;fill:#ffffff;stroke-width:0.99975002;stroke-miterlimit:4;stroke-dasharray:none"><path
           inkscape:connector-curvature="0"
           id="path226"
           style="fill:#ffffff;fill-opacity:1;fill-rule:nonzero;stroke:none;stroke-opacity:1;stroke-width:0.99975002;stroke-miterlimit:4;stroke-dasharray:none"
           d="m 0,0 h -108.16 c -5.523,0 -10,4.478 -10,10 0,5.522 4.477,10 10,10 H 0 c 14.164,0 25.687,11.415 25.687,25.446 0,14.032 -11.323,25.448 -25.242,25.448 -14.029,0 -25.018,-11.181 -25.018,-25.454 0,-5.522 -4.478,-10 -10,-10 -5.523,0 -10,4.478 -10,10 0,25.063 20.195,45.454 45.018,45.454 24.947,0 45.243,-20.388 45.243,-45.448 C 45.688,20.387 25.192,0 0,0" /></g><g
         transform="translate(2718.958,811.0605)"
         id="g228"
         style="stroke:none;stroke-opacity:1;fill-opacity:1;fill:#ffffff;stroke-width:0.99975002;stroke-miterlimit:4;stroke-dasharray:none"><path
           inkscape:connector-curvature="0"
           id="path230"
           style="fill:#ffffff;fill-opacity:1;fill-rule:nonzero;stroke:none;stroke-opacity:1;stroke-width:0.99975002;stroke-miterlimit:4;stroke-dasharray:none"
           d="m 0,0 c -2.562,0 -5.122,0.978 -7.074,2.933 -3.904,3.907 -3.901,10.239 0.007,14.141 l 25.042,25.017 c 3.907,3.903 10.24,3.9 14.141,-0.007 3.904,-3.907 3.901,-10.239 -0.007,-14.142 L 7.067,2.926 C 5.115,0.976 2.558,0 0,0" /></g><g
         transform="translate(2631.958,868.0605)"
         id="g232"
         style="stroke:none;stroke-opacity:1;fill-opacity:1;fill:#ffffff;stroke-width:0.99975002;stroke-miterlimit:4;stroke-dasharray:none"><path
           inkscape:connector-curvature="0"
           id="path234"
           style="fill:#ffffff;fill-opacity:1;fill-rule:nonzero;stroke:none;stroke-opacity:1;stroke-width:0.99975002;stroke-miterlimit:4;stroke-dasharray:none"
           d="m 0,0 c -2.562,0 -5.121,0.978 -7.074,2.933 -3.904,3.907 -3.901,10.238 0.007,14.141 L 8.725,32.851 c 3.907,3.903 10.238,3.9 14.141,-0.007 3.904,-3.907 3.901,-10.239 -0.007,-14.142 L 7.067,2.926 C 5.115,0.976 2.558,0 0,0" /></g><g
         transform="translate(2770.958,868.0605)"
         id="g236"
         style="stroke:none;stroke-opacity:1;fill-opacity:1;fill:#ffffff;stroke-width:0.99975002;stroke-miterlimit:4;stroke-dasharray:none"><path
           inkscape:connector-curvature="0"
           id="path238"
           style="fill:#ffffff;fill-opacity:1;fill-rule:nonzero;stroke:none;stroke-opacity:1;stroke-width:0.99975002;stroke-miterlimit:4;stroke-dasharray:none"
           d="m 0,0 c -2.562,0 -5.121,0.978 -7.074,2.933 -3.904,3.907 -3.901,10.238 0.007,14.141 L 8.725,32.851 c 3.907,3.903 10.238,3.9 14.141,-0.007 3.904,-3.907 3.901,-10.239 -0.007,-14.142 L 7.067,2.926 C 5.115,0.976 2.558,0 0,0" /></g><g
         transform="translate(2813.958,829.8975)"
         id="g240"
         style="stroke:none;stroke-opacity:1;fill-opacity:1;fill:#ffffff;stroke-width:0.99975002;stroke-miterlimit:4;stroke-dasharray:none"><path
           inkscape:connector-curvature="0"
           id="path242"
           style="fill:#ffffff;fill-opacity:1;fill-rule:nonzero;stroke:none;stroke-opacity:1;stroke-width:0.99975002;stroke-miterlimit:4;stroke-dasharray:none"
           d="m 0,0 c -2.563,0 -5.127,0.979 -7.081,2.938 -3.899,3.912 -3.891,10.243 0.019,14.143 l 18.993,18.94 c 3.911,3.899 10.241,3.891 14.142,-0.02 3.9,-3.911 3.891,-10.242 -0.019,-14.143 L 7.062,2.919 C 5.109,0.973 2.555,0 0,0" /></g><g
         transform="translate(2664.958,831.8975)"
         id="g244"
         style="stroke:none;stroke-opacity:1;fill-opacity:1;fill:#ffffff;stroke-width:0.99975002;stroke-miterlimit:4;stroke-dasharray:none"><path
           inkscape:connector-curvature="0"
           id="path246"
           style="fill:#ffffff;fill-opacity:1;fill-rule:nonzero;stroke:none;stroke-opacity:1;stroke-width:0.99975002;stroke-miterlimit:4;stroke-dasharray:none"
           d="m 0,0 c -2.562,0 -5.122,0.978 -7.074,2.933 -3.904,3.907 -3.901,10.238 0.007,14.141 l 51.992,51.94 c 3.907,3.903 10.24,3.9 14.141,-0.007 C 62.97,65.1 62.967,58.769 59.06,54.865 L 7.067,2.926 C 5.115,0.976 2.558,0 0,0" /></g><g
         transform="translate(2846.7754,1013)"
         id="g248"
         style="stroke:none;stroke-opacity:1;fill-opacity:1;fill:#ffffff;stroke-width:0.99975002;stroke-miterlimit:4;stroke-dasharray:none"><path
           inkscape:connector-curvature="0"
           id="path250"
           style="fill:#ffffff;fill-opacity:1;fill-rule:nonzero;stroke:none;stroke-opacity:1;stroke-width:0.99975002;stroke-miterlimit:4;stroke-dasharray:none"
           d="m 0,0 h -9.775 c -5.523,0 -10,4.478 -10,10 0,5.522 4.477,10 10,10 h 9.602 c 25.17,0.912 44.862,20.812 44.862,45.37 0,24.986 -20.295,45.314 -45.242,45.314 -1.283,0 -2.294,-0.029 -3.18,-0.09 -2.67,-0.188 -5.275,0.697 -7.277,2.449 -2.003,1.752 -3.224,4.23 -3.395,6.886 -2.637,41.105 -36.994,73.303 -78.218,73.303 -27.648,0 -52.725,-14.128 -67.079,-37.794 -1.595,-2.629 -4.312,-4.379 -7.365,-4.744 -3.045,-0.362 -6.106,0.697 -8.275,2.878 -4.66,4.685 -10.858,7.265 -17.455,7.265 -13.574,0 -24.618,-11.043 -24.618,-24.616 0,-3.871 0.879,-7.583 2.612,-11.033 1.528,-3.038 1.407,-6.642 -0.32,-9.57 -1.728,-2.929 -4.823,-4.779 -8.22,-4.913 -24.297,-0.959 -43.33,-20.81 -43.33,-45.193 0,-24.857 20.201,-45.212 45.032,-45.375 l 8.63,-0.005 c 5.523,-0.003 9.997,-4.483 9.994,-10.006 -0.003,-5.521 -4.479,-9.994 -10,-9.994 h -0.005 l -8.691,0.005 c -35.846,0.236 -64.96,29.563 -64.96,65.375 0,30.79 21.062,56.569 49.845,63.436 -0.391,2.384 -0.587,4.811 -0.587,7.273 0,24.601 20.016,44.616 44.618,44.616 7.929,0 15.538,-2.054 22.227,-5.912 18.55,24.172 46.96,38.307 77.947,38.307 48.597,0 89.592,-35.657 97.139,-82.744 C 38.13,127.89 64.689,99.676 64.689,65.37 64.689,29.91 36.42,1.198 0.33,0.006 0.221,0.002 0.11,0 0,0" /></g><g
         transform="translate(506.1255,2304.2461)"
         id="g252"
         style="stroke:none;stroke-opacity:1;fill-opacity:1;fill:#ffffff;stroke-width:0.99975002;stroke-miterlimit:4;stroke-dasharray:none"
         inkscape:export-xdpi="50"
         inkscape:export-ydpi="50"><path
           inkscape:connector-curvature="0"
           id="path254"
           style="fill:#ffffff;fill-opacity:1;fill-rule:nonzero;stroke:none;stroke-opacity:1;stroke-width:0.99975002;stroke-miterlimit:4;stroke-dasharray:none"
           d="m 0,0 c -15.225,0 -27.611,-12.386 -27.611,-27.61 0,-4.344 0.986,-8.507 2.93,-12.374 1.527,-3.037 1.407,-6.642 -0.32,-9.571 -1.727,-2.928 -4.823,-4.779 -8.22,-4.913 -26.862,-1.061 -47.904,-23.008 -47.904,-49.964 0,-27.393 22.332,-49.826 49.782,-50.006 l 240.801,0.004 c 27.204,0.269 49.417,22.7 49.417,50.002 0,27.579 -22.438,50.017 -50.017,50.017 -1.028,0 -2.145,-0.044 -3.516,-0.14 -2.653,-0.185 -5.274,0.698 -7.277,2.45 -2.003,1.752 -3.225,4.23 -3.395,6.886 -2.893,45.1 -40.598,80.428 -85.84,80.428 -30.34,0 -57.859,-15.508 -73.614,-41.485 -1.594,-2.63 -4.311,-4.38 -7.365,-4.745 -3.053,-0.36 -6.106,0.697 -8.275,2.878 C 14.354,-2.892 7.401,0 0,0 m -31.409,-174.438 c -38.471,0.253 -69.716,31.658 -69.716,70.006 0,33.324 22.986,61.18 54.278,68.263 -0.508,2.799 -0.764,5.655 -0.764,8.559 0,26.252 21.358,47.61 47.611,47.61 8.72,0 17.078,-2.327 24.37,-6.688 19.981,26.423 50.812,41.897 84.46,41.897 52.588,0 96.916,-38.738 104.78,-89.784 36.399,-2.452 65.265,-32.847 65.265,-69.857 0,-38.222 -31.096,-69.625 -69.318,-70.001 z" /></g><g
         transform="translate(715.5796,1553.9092)"
         id="g256"
         style="stroke:none;stroke-opacity:1;fill-opacity:1;fill:#ffffff;stroke-width:0.99975002;stroke-miterlimit:4;stroke-dasharray:none"
         inkscape:export-xdpi="50"
         inkscape:export-ydpi="50"><path
           inkscape:connector-curvature="0"
           id="path258"
           style="fill:#ffffff;fill-opacity:1;fill-rule:nonzero;stroke:none;stroke-opacity:1;stroke-width:0.99975002;stroke-miterlimit:4;stroke-dasharray:none"
           d="m 0,0 -10.584,0.004 c -5.522,0.002 -9.998,4.48 -9.996,10.004 0.002,5.521 4.479,9.996 10,9.996 h 0.004 L -0.044,20 c 27.279,0.295 49.464,22.693 49.464,49.953 0,27.566 -22.437,49.993 -50.016,49.993 -1.179,0 -2.439,-0.077 -3.516,-0.152 -2.653,-0.186 -5.274,0.697 -7.277,2.45 -2.003,1.752 -3.225,4.231 -3.395,6.886 -2.893,45.097 -40.598,80.423 -85.84,80.423 -30.338,0 -57.857,-15.511 -73.614,-41.49 -1.595,-2.629 -4.311,-4.379 -7.366,-4.744 -3.052,-0.36 -6.105,0.697 -8.274,2.878 -5.222,5.25 -12.174,8.141 -19.576,8.141 -15.225,0 -27.611,-12.386 -27.611,-27.611 0,-4.344 0.986,-8.507 2.93,-12.374 1.527,-3.037 1.406,-6.642 -0.32,-9.571 -1.727,-2.928 -4.823,-4.779 -8.22,-4.913 -26.862,-1.06 -47.905,-22.965 -47.905,-49.868 0,-27.521 22.303,-49.91 49.717,-49.91 h 10.283 c 5.523,0 10,-4.478 10,-10 0,-5.523 -4.477,-10 -10,-10 h -10.283 c -38.442,0 -69.717,31.361 -69.717,69.91 0,33.277 22.987,61.094 54.279,68.168 -0.508,2.799 -0.764,5.656 -0.764,8.558 0,26.253 21.358,47.611 47.611,47.611 8.721,0 17.078,-2.326 24.369,-6.687 19.982,26.425 50.814,41.902 84.461,41.902 52.585,0 96.91,-38.729 104.778,-89.766 C 40.556,137.338 69.42,106.953 69.42,69.953 69.42,31.757 38.324,0.376 0.102,0.001 0.068,0 0.034,0 0,0" /></g><g
         transform="translate(501.0332,1459.915)"
         id="g260"
         style="stroke:none;stroke-opacity:1;fill-opacity:1;fill:#ffffff;stroke-width:0.99975002;stroke-miterlimit:4;stroke-dasharray:none"
         inkscape:export-xdpi="50"
         inkscape:export-ydpi="50"><path
           inkscape:connector-curvature="0"
           id="path262"
           style="fill:#ffffff;fill-opacity:1;fill-rule:nonzero;stroke:none;stroke-opacity:1;stroke-width:0.99975002;stroke-miterlimit:4;stroke-dasharray:none"
           d="m 0,0 c -2.557,0 -5.114,0.975 -7.066,2.924 -3.908,3.902 -3.913,10.234 -0.01,14.142 L 35.882,60.085 H 10 c -4.092,0 -7.771,2.492 -9.288,6.293 -1.516,3.8 -0.565,8.141 2.402,10.958 l 63,59.829 c 4.005,3.803 10.334,3.642 14.137,-0.365 3.803,-4.004 3.64,-10.334 -0.365,-14.137 L 35.052,80.085 H 60 c 4.043,0 7.689,-2.435 9.237,-6.17 1.549,-3.735 0.696,-8.035 -2.161,-10.896 L 7.076,2.934 C 5.123,0.979 2.562,0 0,0" /></g><g
         transform="translate(602.958,1495.0605)"
         id="g264"
         style="stroke:none;stroke-opacity:1;fill-opacity:1;fill:#ffffff;stroke-width:0.99975002;stroke-miterlimit:4;stroke-dasharray:none"
         inkscape:export-xdpi="50"
         inkscape:export-ydpi="50"><path
           inkscape:connector-curvature="0"
           id="path266"
           style="fill:#ffffff;fill-opacity:1;fill-rule:nonzero;stroke:none;stroke-opacity:1;stroke-width:0.99975002;stroke-miterlimit:4;stroke-dasharray:none"
           d="m 0,0 c -2.561,0 -5.122,0.978 -7.075,2.933 -3.903,3.907 -3.9,10.238 0.008,14.141 L 35.841,59.939 H 10 c -4.087,0 -7.763,2.488 -9.283,6.282 -1.52,3.794 -0.578,8.132 2.379,10.953 l 63,60.121 c 3.996,3.812 10.325,3.665 14.138,-0.331 3.813,-3.995 3.665,-10.325 -0.33,-14.138 L 34.963,79.939 H 60 c 4.045,0 7.692,-2.437 9.24,-6.175 1.547,-3.738 0.69,-8.04 -2.173,-10.899 L 7.067,2.926 C 5.115,0.976 2.558,0 0,0" /></g><g
         transform="translate(551.958,1447.0605)"
         id="g268"
         style="stroke:none;stroke-opacity:1;fill-opacity:1;fill:#ffffff;stroke-width:0.99975002;stroke-miterlimit:4;stroke-dasharray:none"
         inkscape:export-xdpi="50"
         inkscape:export-ydpi="50"><path
           inkscape:connector-curvature="0"
           id="path270"
           style="fill:#ffffff;fill-opacity:1;fill-rule:nonzero;stroke:none;stroke-opacity:1;stroke-width:0.99975002;stroke-miterlimit:4;stroke-dasharray:none"
           d="m 0,0 c -2.561,0 -5.122,0.978 -7.075,2.933 -3.903,3.907 -3.9,10.239 0.008,14.141 l 25.042,25.017 c 3.907,3.903 10.238,3.9 14.142,-0.007 3.903,-3.907 3.9,-10.239 -0.008,-14.142 L 7.067,2.926 C 5.115,0.976 2.557,0 0,0" /></g><g
         transform="translate(460.958,1480.0605)"
         id="g272"
         style="stroke:none;stroke-opacity:1;fill-opacity:1;fill:#ffffff;stroke-width:0.99975002;stroke-miterlimit:4;stroke-dasharray:none"
         inkscape:export-xdpi="50"
         inkscape:export-ydpi="50"><path
           inkscape:connector-curvature="0"
           id="path274"
           style="fill:#ffffff;fill-opacity:1;fill-rule:nonzero;stroke:none;stroke-opacity:1;stroke-width:0.99975002;stroke-miterlimit:4;stroke-dasharray:none"
           d="m 0,0 c -2.561,0 -5.122,0.978 -7.075,2.933 -3.903,3.907 -3.9,10.238 0.008,14.141 L 8.725,32.851 c 3.907,3.902 10.238,3.899 14.142,-0.007 3.903,-3.907 3.9,-10.239 -0.008,-14.142 L 7.067,2.926 C 5.115,0.976 2.558,0 0,0" /></g><g
         transform="translate(639.958,1466.0605)"
         id="g276"
         style="stroke:none;stroke-opacity:1;fill-opacity:1;fill:#ffffff;stroke-width:0.99975002;stroke-miterlimit:4;stroke-dasharray:none"
         inkscape:export-xdpi="50"
         inkscape:export-ydpi="50"><path
           inkscape:connector-curvature="0"
           id="path278"
           style="fill:#ffffff;fill-opacity:1;fill-rule:nonzero;stroke:none;stroke-opacity:1;stroke-width:0.99975002;stroke-miterlimit:4;stroke-dasharray:none"
           d="m 0,0 c -2.561,0 -5.122,0.978 -7.075,2.933 -3.903,3.907 -3.9,10.238 0.008,14.141 l 51.992,51.94 c 3.907,3.903 10.239,3.9 14.142,-0.007 C 62.97,65.1 62.967,58.769 59.06,54.865 L 7.067,2.926 C 5.115,0.976 2.557,0 0,0" /></g><g
         transform="translate(1235.0034,983.9131)"
         id="g280"
         style="stroke:none;stroke-opacity:1;fill-opacity:1;fill:#ffffff;stroke-width:0.99975002;stroke-miterlimit:4;stroke-dasharray:none"
         inkscape:export-xdpi="50"
         inkscape:export-ydpi="50"><path
           inkscape:connector-curvature="0"
           id="path282"
           style="fill:#ffffff;fill-opacity:1;fill-rule:nonzero;stroke:none;stroke-opacity:1;stroke-width:0.99975002;stroke-miterlimit:4;stroke-dasharray:none"
           d="m 0,0 10.532,-0.004 c 27.28,0.295 49.465,22.693 49.465,49.953 0,27.566 -22.438,49.992 -50.017,49.992 -1.185,0 -2.442,-0.076 -3.516,-0.15 -2.651,-0.193 -5.273,0.696 -7.276,2.449 -2.003,1.752 -3.226,4.231 -3.396,6.886 -2.893,45.097 -40.598,80.423 -85.84,80.423 -30.338,0 -57.857,-15.51 -73.614,-41.489 -1.594,-2.63 -4.311,-4.38 -7.365,-4.745 -3.054,-0.36 -6.107,0.698 -8.275,2.878 -5.221,5.25 -12.173,8.141 -19.576,8.141 -15.225,0 -27.611,-12.386 -27.611,-27.61 0,-4.345 0.986,-8.508 2.93,-12.374 1.527,-3.037 1.407,-6.643 -0.32,-9.572 -1.726,-2.927 -4.823,-4.779 -8.22,-4.913 -26.862,-1.06 -47.904,-22.966 -47.904,-49.868 0,-27.52 22.302,-49.91 49.716,-49.91 h 10.284 z M 10.576,-20.004 -0.008,-20 l -230.279,0.087 c -38.442,0 -69.716,31.361 -69.716,69.91 0,33.276 22.986,61.094 54.278,68.168 -0.508,2.799 -0.764,5.656 -0.764,8.559 0,26.253 21.358,47.61 47.611,47.61 8.72,0 17.078,-2.326 24.369,-6.687 19.983,26.425 50.814,41.902 84.461,41.902 52.585,0 96.91,-38.729 104.778,-89.767 36.402,-2.448 65.267,-32.834 65.267,-69.833 0,-38.196 -31.097,-69.577 -69.319,-69.952 -0.033,-0.001 -0.068,-0.001 -0.102,-0.001" /></g><g
         transform="translate(1222.625,879)"
         id="g284"
         style="stroke:none;stroke-opacity:1;fill-opacity:1;fill:#ffffff;stroke-width:0.99975002;stroke-miterlimit:4;stroke-dasharray:none"
         inkscape:export-xdpi="50"
         inkscape:export-ydpi="50"><path
           inkscape:connector-curvature="0"
           id="path286"
           style="fill:#ffffff;fill-opacity:1;fill-rule:nonzero;stroke:none;stroke-opacity:1;stroke-width:0.99975002;stroke-miterlimit:4;stroke-dasharray:none"
           d="m 0,0 h -0.007 l -56.375,0.024 c -5.522,0.004 -9.996,4.471 -9.993,9.995 0.003,5.52 4.48,9.981 10,9.981 h 0.007 L 0.007,19.968 C 5.529,19.964 10.003,15.501 10,9.977 9.997,4.457 5.52,0 0,0" /></g><g
         transform="translate(1127.25,879)"
         id="g288"
         style="stroke:none;stroke-opacity:1;fill-opacity:1;fill:#ffffff;stroke-width:0.99975002;stroke-miterlimit:4;stroke-dasharray:none"
         inkscape:export-xdpi="50"
         inkscape:export-ydpi="50"><path
           inkscape:connector-curvature="0"
           id="path290"
           style="fill:#ffffff;fill-opacity:1;fill-rule:nonzero;stroke:none;stroke-opacity:1;stroke-width:0.99975002;stroke-miterlimit:4;stroke-dasharray:none"
           d="M 0,0 H -0.004 L -99.42,0.024 c -5.522,0.002 -9.998,4.468 -9.996,9.992 0.002,5.521 4.479,9.984 10,9.984 h 0.004 L 0.004,19.968 C 5.526,19.966 10.002,15.504 10,9.98 9.998,4.459 5.521,0 0,0" /></g><g
         transform="translate(1245.875,921)"
         id="g292"
         style="stroke:none;stroke-opacity:1;fill-opacity:1;fill:#ffffff;stroke-width:0.99975002;stroke-miterlimit:4;stroke-dasharray:none"
         inkscape:export-xdpi="50"
         inkscape:export-ydpi="50"><path
           inkscape:connector-curvature="0"
           id="path294"
           style="fill:#ffffff;fill-opacity:1;fill-rule:nonzero;stroke:none;stroke-opacity:1;stroke-width:0.99975002;stroke-miterlimit:4;stroke-dasharray:none"
           d="m 0,0 h -0.003 l -129.541,0.024 c -5.523,0.002 -9.998,4.468 -9.997,9.991 0.001,5.521 4.479,9.985 10,9.985 h 0.003 L 0.003,19.968 C 5.526,19.966 10.001,15.504 10,9.981 9.999,4.46 5.521,0 0,0" /></g><g
         transform="translate(1078.875,921)"
         id="g296"
         style="stroke:none;stroke-opacity:1;fill-opacity:1;fill:#ffffff;stroke-width:0.99975002;stroke-miterlimit:4;stroke-dasharray:none"
         inkscape:export-xdpi="50"
         inkscape:export-ydpi="50"><path
           inkscape:connector-curvature="0"
           id="path298"
           style="fill:#ffffff;fill-opacity:1;fill-rule:nonzero;stroke:none;stroke-opacity:1;stroke-width:0.99975002;stroke-miterlimit:4;stroke-dasharray:none"
           d="m 0,0 h -0.005 l -71.541,0.024 c -5.523,0.003 -9.998,4.47 -9.995,9.993 0.003,5.521 4.48,9.983 10,9.983 h 0.005 L 0.005,19.968 C 5.528,19.965 10.003,15.502 10,9.979 9.997,4.458 5.52,0 0,0" /></g><g
         transform="translate(1667.313,1123.5361)"
         id="g300"
         style="stroke:none;stroke-opacity:1;fill-opacity:1;fill:#ffffff;stroke-width:0.99975002;stroke-miterlimit:4;stroke-dasharray:none"
         inkscape:export-xdpi="50"
         inkscape:export-ydpi="50"><path
           inkscape:connector-curvature="0"
           id="path302"
           style="fill:#ffffff;fill-opacity:1;fill-rule:nonzero;stroke:none;stroke-opacity:1;stroke-width:0.99975002;stroke-miterlimit:4;stroke-dasharray:none"
           d="m 0,0 c -51.128,-4.377 -91.401,-47.392 -91.401,-99.634 0,-55.14 44.86,-100 100,-100 26.891,0 52.468,10.876 71.112,29.708 -22.935,5.456 -43.836,17.599 -60.134,35.179 -20.621,22.244 -31.978,51.208 -31.978,81.558 0,18.658 4.248,36.752 12.401,53.189 m 8.599,-219.634 c -66.168,0 -120,53.832 -120,120 0,66.168 53.832,120 120,120 3.206,0 6.49,-0.134 9.761,-0.397 3.577,-0.289 6.724,-2.472 8.249,-5.72 1.524,-3.248 1.191,-7.064 -0.872,-10 C 13.871,-12.627 7.599,-32.489 7.599,-53.189 c 0,-25.291 9.463,-49.426 26.645,-67.96 17.089,-18.436 40.246,-29.697 65.202,-31.708 3.576,-0.289 6.724,-2.471 8.249,-5.72 1.524,-3.248 1.191,-7.065 -0.872,-10 -22.479,-31.97 -59.198,-51.057 -98.224,-51.057" /></g><g
         transform="translate(1235.0034,1573.9131)"
         id="g304"
         style="stroke:none;stroke-opacity:1;fill-opacity:1;fill:#ffffff;stroke-width:0.99975002;stroke-miterlimit:4;stroke-dasharray:none"
         inkscape:export-xdpi="50"
         inkscape:export-ydpi="50"><path
           inkscape:connector-curvature="0"
           id="path306"
           style="fill:#ffffff;fill-opacity:1;fill-rule:nonzero;stroke:none;stroke-opacity:1;stroke-width:0.99975002;stroke-miterlimit:4;stroke-dasharray:none"
           d="m 0,0 10.532,-0.004 c 27.28,0.295 49.465,22.693 49.465,49.953 0,27.566 -22.438,49.993 -50.017,49.993 -1.179,0 -2.438,-0.077 -3.516,-0.151 -2.651,-0.187 -5.273,0.696 -7.276,2.449 -2.003,1.752 -3.226,4.231 -3.396,6.886 -2.893,45.097 -40.598,80.423 -85.84,80.423 -30.338,0 -57.857,-15.51 -73.614,-41.489 -1.594,-2.63 -4.311,-4.38 -7.365,-4.745 -3.056,-0.359 -6.106,0.697 -8.275,2.878 -5.221,5.25 -12.174,8.141 -19.576,8.141 -15.225,0 -27.611,-12.386 -27.611,-27.611 0,-4.344 0.986,-8.507 2.93,-12.374 1.527,-3.037 1.407,-6.642 -0.32,-9.571 -1.726,-2.928 -4.823,-4.778 -8.22,-4.913 -26.862,-1.06 -47.904,-22.965 -47.904,-49.867 0,-27.521 22.302,-49.911 49.716,-49.911 h 10.284 z M 10.576,-20.004 -0.008,-20 l -230.279,0.087 c -38.442,0 -69.716,31.361 -69.716,69.911 0,33.276 22.986,61.093 54.278,68.168 -0.508,2.798 -0.764,5.655 -0.764,8.557 0,26.253 21.358,47.611 47.611,47.611 8.721,0 17.078,-2.326 24.369,-6.687 19.983,26.425 50.814,41.902 84.461,41.902 52.585,0 96.91,-38.729 104.778,-89.766 36.402,-2.449 65.267,-32.834 65.267,-69.834 0,-38.196 -31.097,-69.577 -69.319,-69.952 -0.033,-0.001 -0.068,-0.001 -0.102,-0.001" /></g><g
         transform="translate(1089.958,1447.0605)"
         id="g308"
         style="stroke:none;stroke-opacity:1;fill-opacity:1;fill:#ffffff;stroke-width:0.99975002;stroke-miterlimit:4;stroke-dasharray:none"
         inkscape:export-xdpi="50"
         inkscape:export-ydpi="50"><path
           inkscape:connector-curvature="0"
           id="path310"
           style="fill:#ffffff;fill-opacity:1;fill-rule:nonzero;stroke:none;stroke-opacity:1;stroke-width:0.99975002;stroke-miterlimit:4;stroke-dasharray:none"
           d="m 0,0 c -2.561,0 -5.122,0.978 -7.075,2.933 -3.903,3.907 -3.9,10.239 0.008,14.141 l 25.042,25.017 c 3.907,3.903 10.239,3.9 14.142,-0.007 3.903,-3.907 3.9,-10.239 -0.008,-14.142 L 7.067,2.926 C 5.115,0.976 2.557,0 0,0" /></g><g
         transform="translate(1002.958,1504.0605)"
         id="g312"
         style="stroke:none;stroke-opacity:1;fill-opacity:1;fill:#ffffff;stroke-width:0.99975002;stroke-miterlimit:4;stroke-dasharray:none"
         inkscape:export-xdpi="50"
         inkscape:export-ydpi="50"><path
           inkscape:connector-curvature="0"
           id="path314"
           style="fill:#ffffff;fill-opacity:1;fill-rule:nonzero;stroke:none;stroke-opacity:1;stroke-width:0.99975002;stroke-miterlimit:4;stroke-dasharray:none"
           d="m 0,0 c -2.561,0 -5.122,0.978 -7.075,2.933 -3.903,3.907 -3.9,10.238 0.008,14.141 L 8.725,32.851 c 3.907,3.903 10.238,3.9 14.142,-0.007 3.903,-3.907 3.9,-10.239 -0.008,-14.142 L 7.067,2.926 C 5.115,0.976 2.558,0 0,0" /></g><g
         transform="translate(1141.958,1504.0605)"
         id="g316"
         style="stroke:none;stroke-opacity:1;fill-opacity:1;fill:#ffffff;stroke-width:0.99975002;stroke-miterlimit:4;stroke-dasharray:none"
         inkscape:export-xdpi="50"
         inkscape:export-ydpi="50"><path
           inkscape:connector-curvature="0"
           id="path318"
           style="fill:#ffffff;fill-opacity:1;fill-rule:nonzero;stroke:none;stroke-opacity:1;stroke-width:0.99975002;stroke-miterlimit:4;stroke-dasharray:none"
           d="m 0,0 c -2.561,0 -5.122,0.978 -7.075,2.933 -3.903,3.907 -3.9,10.238 0.008,14.141 L 8.725,32.851 c 3.907,3.903 10.238,3.9 14.142,-0.007 3.903,-3.907 3.9,-10.239 -0.008,-14.142 L 7.067,2.926 C 5.115,0.976 2.558,0 0,0" /></g><g
         transform="translate(1186.958,1478.8975)"
         id="g320"
         style="stroke:none;stroke-opacity:1;fill-opacity:1;fill:#ffffff;stroke-width:0.99975002;stroke-miterlimit:4;stroke-dasharray:none"
         inkscape:export-xdpi="50"
         inkscape:export-ydpi="50"><path
           inkscape:connector-curvature="0"
           id="path322"
           style="fill:#ffffff;fill-opacity:1;fill-rule:nonzero;stroke:none;stroke-opacity:1;stroke-width:0.99975002;stroke-miterlimit:4;stroke-dasharray:none"
           d="m 0,0 c -2.562,0 -5.123,0.978 -7.076,2.934 -3.903,3.907 -3.898,10.239 0.01,14.141 l 40.992,40.94 c 3.907,3.903 10.239,3.899 14.142,-0.009 3.903,-3.907 3.898,-10.239 -0.009,-14.142 L 7.066,2.925 C 5.114,0.975 2.557,0 0,0" /></g><g
         transform="translate(1035.958,1467.8975)"
         id="g324"
         style="stroke:none;stroke-opacity:1;fill-opacity:1;fill:#ffffff;stroke-width:0.99975002;stroke-miterlimit:4;stroke-dasharray:none"
         inkscape:export-xdpi="50"
         inkscape:export-ydpi="50"><path
           inkscape:connector-curvature="0"
           id="path326"
           style="fill:#ffffff;fill-opacity:1;fill-rule:nonzero;stroke:none;stroke-opacity:1;stroke-width:0.99975002;stroke-miterlimit:4;stroke-dasharray:none"
           d="m 0,0 c -2.561,0 -5.122,0.978 -7.075,2.933 -3.903,3.907 -3.9,10.238 0.008,14.141 l 51.992,51.94 c 3.907,3.903 10.239,3.9 14.142,-0.007 C 62.97,65.1 62.967,58.769 59.06,54.865 L 7.067,2.926 C 5.115,0.976 2.557,0 0,0" /></g><g
         transform="translate(1775.0029,1595.9131)"
         id="g328"
         style="stroke:none;stroke-opacity:1;fill-opacity:1;fill:#ffffff;stroke-width:0.99975002;stroke-miterlimit:4;stroke-dasharray:none"
         inkscape:export-xdpi="50"
         inkscape:export-ydpi="50"><path
           inkscape:connector-curvature="0"
           id="path330"
           style="fill:#ffffff;fill-opacity:1;fill-rule:nonzero;stroke:none;stroke-opacity:1;stroke-width:0.99975002;stroke-miterlimit:4;stroke-dasharray:none"
           d="m 0,0 10.531,-0.004 c 27.281,0.295 49.466,22.694 49.466,49.953 0,27.566 -22.437,49.993 -50.017,49.993 -1.178,0 -2.438,-0.077 -3.514,-0.151 -2.643,-0.183 -5.274,0.696 -7.278,2.449 -2.002,1.752 -3.225,4.231 -3.395,6.886 -2.894,45.097 -40.599,80.423 -85.84,80.423 -30.339,0 -57.858,-15.51 -73.614,-41.489 -1.595,-2.63 -4.312,-4.38 -7.366,-4.745 -3.052,-0.362 -6.106,0.697 -8.275,2.878 -5.221,5.25 -12.173,8.141 -19.575,8.141 -15.225,0 -27.611,-12.386 -27.611,-27.611 0,-4.344 0.986,-8.507 2.93,-12.374 1.527,-3.037 1.406,-6.642 -0.32,-9.571 -1.727,-2.928 -4.823,-4.778 -8.22,-4.913 -26.862,-1.06 -47.905,-22.965 -47.905,-49.867 0,-27.521 22.303,-49.911 49.717,-49.911 h 10.283 z M 10.576,-20.004 -0.008,-20 l -230.278,0.087 c -38.442,0 -69.717,31.361 -69.717,69.911 0,33.276 22.986,61.093 54.279,68.168 -0.508,2.798 -0.764,5.655 -0.764,8.557 0,26.253 21.358,47.611 47.611,47.611 8.72,0 17.077,-2.326 24.369,-6.687 19.982,26.425 50.814,41.902 84.461,41.902 52.584,0 96.909,-38.729 104.778,-89.766 36.403,-2.449 65.266,-32.834 65.266,-69.834 0,-38.196 -31.097,-69.577 -69.318,-69.952 -0.034,-0.001 -0.069,-0.001 -0.103,-0.001" /></g><g
         transform="translate(1569.0024,1440.9463)"
         id="g332"
         style="stroke:none;stroke-opacity:1;fill-opacity:1;fill:#ffffff;stroke-width:0.99975002;stroke-miterlimit:4;stroke-dasharray:none"
         inkscape:export-xdpi="50"
         inkscape:export-ydpi="50"><path
           inkscape:connector-curvature="0"
           id="path334"
           style="fill:#ffffff;fill-opacity:1;fill-rule:nonzero;stroke:none;stroke-opacity:1;stroke-width:0.99975002;stroke-miterlimit:4;stroke-dasharray:none"
           d="m 0,0 c -2.561,0 -5.122,0.978 -7.075,2.933 -3.903,3.907 -3.9,10.238 0.008,14.141 l 61.903,61.841 c 3.907,3.902 10.239,3.9 14.142,-0.007 3.903,-3.907 3.9,-10.238 -0.007,-14.141 L 7.067,2.926 C 5.115,0.976 2.558,0 0,0" /></g><g
         transform="translate(1630.8745,1440.915)"
         id="g336"
         style="stroke:none;stroke-opacity:1;fill-opacity:1;fill:#ffffff;stroke-width:0.99975002;stroke-miterlimit:4;stroke-dasharray:none"
         inkscape:export-xdpi="50"
         inkscape:export-ydpi="50"><path
           inkscape:connector-curvature="0"
           id="path338"
           style="fill:#ffffff;fill-opacity:1;fill-rule:nonzero;stroke:none;stroke-opacity:1;stroke-width:0.99975002;stroke-miterlimit:4;stroke-dasharray:none"
           d="m 0,0 c -2.561,0 -5.122,0.978 -7.075,2.933 l -61.841,61.903 c -3.903,3.907 -3.899,10.238 0.008,14.142 3.908,3.902 10.239,3.9 14.142,-0.007 L 7.075,17.067 C 10.978,13.16 10.975,6.829 7.067,2.926 5.115,0.976 2.558,0 0,0" /></g><g
         transform="translate(1649.9541,1472)"
         id="g340"
         style="stroke:none;stroke-opacity:1;fill-opacity:1;fill:#ffffff;stroke-width:0.99975002;stroke-miterlimit:4;stroke-dasharray:none"
         inkscape:export-xdpi="50"
         inkscape:export-ydpi="50"><path
           inkscape:connector-curvature="0"
           id="path342"
           style="fill:#ffffff;fill-opacity:1;fill-rule:nonzero;stroke:none;stroke-opacity:1;stroke-width:0.99975002;stroke-miterlimit:4;stroke-dasharray:none"
           d="m 0,0 h -0.005 l -100,-0.029 c -5.523,0.003 -9.998,4.497 -9.995,10.019 0.003,5.522 4.479,10.01 10,10.01 h 0.005 l 100,-0.104 C 5.528,19.893 10.003,15.466 10,9.943 9.997,4.423 5.52,0 0,0" /></g><g
         transform="translate(1599.9287,1422)"
         id="g344"
         style="stroke:none;stroke-opacity:1;fill-opacity:1;fill:#ffffff;stroke-width:0.99975002;stroke-miterlimit:4;stroke-dasharray:none"
         inkscape:export-xdpi="50"
         inkscape:export-ydpi="50"><path
           inkscape:connector-curvature="0"
           id="path346"
           style="fill:#ffffff;fill-opacity:1;fill-rule:nonzero;stroke:none;stroke-opacity:1;stroke-width:0.99975002;stroke-miterlimit:4;stroke-dasharray:none"
           d="M 0,0 H -0.005 C -5.528,0 -10.003,4.416 -10,9.938 l 0.051,100.034 c 0.003,5.521 4.48,10.028 10,10.028 h 0.005 c 5.523,0 9.998,-4.549 9.995,-10.071 L 10,9.962 C 9.997,4.44 5.52,0 0,0" /></g><g
         transform="translate(1707.7109,1485.2656)"
         id="g348"
         style="stroke:none;stroke-opacity:1;fill-opacity:1;fill:#ffffff;stroke-width:0.99975002;stroke-miterlimit:4;stroke-dasharray:none"
         inkscape:export-xdpi="50"
         inkscape:export-ydpi="50"><path
           inkscape:connector-curvature="0"
           id="path350"
           style="fill:#ffffff;fill-opacity:1;fill-rule:nonzero;stroke:none;stroke-opacity:1;stroke-width:0.99975002;stroke-miterlimit:4;stroke-dasharray:none"
           d="m 0,0 c -3.445,0 -6.797,1.781 -8.653,4.974 -2.778,4.773 -1.16,10.894 3.615,13.672 l 60.506,35.199 c 4.774,2.781 10.895,1.159 13.672,-3.616 2.777,-4.773 1.159,-10.894 -3.616,-13.671 L 5.019,1.358 C 3.437,0.437 1.707,0 0,0" /></g><g
         transform="translate(1768.707,1486.1699)"
         id="g352"
         style="stroke:none;stroke-opacity:1;fill-opacity:1;fill:#ffffff;stroke-width:0.99975002;stroke-miterlimit:4;stroke-dasharray:none"
         inkscape:export-xdpi="50"
         inkscape:export-ydpi="50"><path
           inkscape:connector-curvature="0"
           id="path354"
           style="fill:#ffffff;fill-opacity:1;fill-rule:nonzero;stroke:none;stroke-opacity:1;stroke-width:0.99975002;stroke-miterlimit:4;stroke-dasharray:none"
           d="m 0,0 c -1.611,0 -3.245,0.391 -4.762,1.213 l -61.523,33.391 c -4.854,2.634 -6.653,8.705 -4.019,13.559 2.634,4.854 8.703,6.652 13.56,4.019 L 4.779,18.791 C 9.633,16.156 11.433,10.086 8.798,5.231 6.986,1.894 3.549,0 0,0" /></g><g
         transform="translate(1737.9365,1468)"
         id="g356"
         style="stroke:none;stroke-opacity:1;fill-opacity:1;fill:#ffffff;stroke-width:0.99975002;stroke-miterlimit:4;stroke-dasharray:none"
         inkscape:export-xdpi="50"
         inkscape:export-ydpi="50"><path
           inkscape:connector-curvature="0"
           id="path358"
           style="fill:#ffffff;fill-opacity:1;fill-rule:nonzero;stroke:none;stroke-opacity:1;stroke-width:0.99975002;stroke-miterlimit:4;stroke-dasharray:none"
           d="M 0,0 H -0.005 C -5.528,0 -10.003,4.71 -10,10.232 l 0.035,68.798 c 0.003,5.522 4.48,9.97 10,9.97 H 0.04 c 5.523,0 9.998,-4.343 9.995,-9.866 L 10,10.153 C 9.997,4.632 5.521,0 0,0" /></g><g
         transform="translate(519.7104,928.2656)"
         id="g360"
         style="stroke:none;stroke-opacity:1;fill-opacity:1;fill:#ffffff;stroke-width:0.99975002;stroke-miterlimit:4;stroke-dasharray:none"
         inkscape:export-xdpi="50"
         inkscape:export-ydpi="50"><path
           inkscape:connector-curvature="0"
           id="path362"
           style="fill:#ffffff;fill-opacity:1;fill-rule:nonzero;stroke:none;stroke-opacity:1;stroke-width:0.99975002;stroke-miterlimit:4;stroke-dasharray:none"
           d="m 0,0 c -3.444,0 -6.796,1.781 -8.653,4.974 -2.777,4.773 -1.159,10.894 3.615,13.672 l 60.507,35.199 c 4.772,2.779 10.895,1.159 13.672,-3.616 2.777,-4.773 1.158,-10.894 -3.616,-13.671 L 5.019,1.358 C 3.438,0.437 1.707,0 0,0" /></g><g
         transform="translate(580.707,929.1699)"
         id="g364"
         style="stroke:none;stroke-opacity:1;fill-opacity:1;fill:#ffffff;stroke-width:0.99975002;stroke-miterlimit:4;stroke-dasharray:none"
         inkscape:export-xdpi="50"
         inkscape:export-ydpi="50"><path
           inkscape:connector-curvature="0"
           id="path366"
           style="fill:#ffffff;fill-opacity:1;fill-rule:nonzero;stroke:none;stroke-opacity:1;stroke-width:0.99975002;stroke-miterlimit:4;stroke-dasharray:none"
           d="m 0,0 c -1.611,0 -3.246,0.391 -4.761,1.213 l -61.523,33.391 c -4.854,2.634 -6.654,8.705 -4.019,13.559 2.635,4.854 8.705,6.651 13.559,4.019 L 4.779,18.791 C 9.633,16.156 11.432,10.086 8.798,5.231 6.986,1.894 3.549,0 0,0" /></g><g
         transform="translate(549.9365,911)"
         id="g368"
         style="stroke:none;stroke-opacity:1;fill-opacity:1;fill:#ffffff;stroke-width:0.99975002;stroke-miterlimit:4;stroke-dasharray:none"
         inkscape:export-xdpi="50"
         inkscape:export-ydpi="50"><path
           inkscape:connector-curvature="0"
           id="path370"
           style="fill:#ffffff;fill-opacity:1;fill-rule:nonzero;stroke:none;stroke-opacity:1;stroke-width:0.99975002;stroke-miterlimit:4;stroke-dasharray:none"
           d="M 0,0 H -0.005 C -5.528,0 -10.003,4.71 -10,10.232 l 0.035,68.798 c 0.003,5.522 4.48,9.97 10,9.97 H 0.04 c 5.523,0 9.998,-4.343 9.995,-9.866 L 10,10.153 C 9.997,4.632 5.52,0 0,0" /></g><g
         transform="translate(614.7104,962.2656)"
         id="g372"
         style="stroke:none;stroke-opacity:1;fill-opacity:1;fill:#ffffff;stroke-width:0.99975002;stroke-miterlimit:4;stroke-dasharray:none"
         inkscape:export-xdpi="50"
         inkscape:export-ydpi="50"><path
           inkscape:connector-curvature="0"
           id="path374"
           style="fill:#ffffff;fill-opacity:1;fill-rule:nonzero;stroke:none;stroke-opacity:1;stroke-width:0.99975002;stroke-miterlimit:4;stroke-dasharray:none"
           d="m 0,0 c -3.444,0 -6.796,1.781 -8.653,4.974 -2.777,4.773 -1.159,10.894 3.615,13.672 l 60.507,35.199 c 4.772,2.779 10.894,1.16 13.672,-3.616 2.777,-4.773 1.158,-10.894 -3.616,-13.671 L 5.019,1.358 C 3.438,0.437 1.707,0 0,0" /></g><g
         transform="translate(675.707,963.1699)"
         id="g376"
         style="stroke:none;stroke-opacity:1;fill-opacity:1;fill:#ffffff;stroke-width:0.99975002;stroke-miterlimit:4;stroke-dasharray:none"
         inkscape:export-xdpi="50"
         inkscape:export-ydpi="50"><path
           inkscape:connector-curvature="0"
           id="path378"
           style="fill:#ffffff;fill-opacity:1;fill-rule:nonzero;stroke:none;stroke-opacity:1;stroke-width:0.99975002;stroke-miterlimit:4;stroke-dasharray:none"
           d="m 0,0 c -1.611,0 -3.246,0.391 -4.761,1.213 l -61.523,33.391 c -4.854,2.634 -6.654,8.705 -4.019,13.559 2.635,4.854 8.705,6.652 13.559,4.019 L 4.779,18.791 C 9.633,16.156 11.432,10.086 8.798,5.231 6.986,1.894 3.549,0 0,0" /></g><g
         transform="translate(644.9365,945)"
         id="g380"
         style="stroke:none;stroke-opacity:1;fill-opacity:1;fill:#ffffff;stroke-width:0.99975002;stroke-miterlimit:4;stroke-dasharray:none"
         inkscape:export-xdpi="50"
         inkscape:export-ydpi="50"><path
           inkscape:connector-curvature="0"
           id="path382"
           style="fill:#ffffff;fill-opacity:1;fill-rule:nonzero;stroke:none;stroke-opacity:1;stroke-width:0.99975002;stroke-miterlimit:4;stroke-dasharray:none"
           d="M 0,0 H -0.005 C -5.528,0 -10.003,4.71 -10,10.232 l 0.035,68.798 c 0.003,5.522 4.48,9.97 10,9.97 H 0.04 c 5.523,0 9.998,-4.343 9.995,-9.866 L 10,10.153 C 9.997,4.632 5.52,0 0,0" /></g><g
         transform="translate(532.958,846.0605)"
         id="g384"
         style="stroke:none;stroke-opacity:1;fill-opacity:1;fill:#ffffff;stroke-width:0.99975002;stroke-miterlimit:4;stroke-dasharray:none"
         inkscape:export-xdpi="50"
         inkscape:export-ydpi="50"><path
           inkscape:connector-curvature="0"
           id="path386"
           style="fill:#ffffff;fill-opacity:1;fill-rule:nonzero;stroke:none;stroke-opacity:1;stroke-width:0.99975002;stroke-miterlimit:4;stroke-dasharray:none"
           d="m 0,0 c -2.561,0 -5.122,0.978 -7.075,2.933 -3.903,3.907 -3.9,10.239 0.008,14.141 l 25.042,25.017 c 3.907,3.903 10.238,3.9 14.142,-0.007 3.903,-3.907 3.9,-10.239 -0.008,-14.142 L 7.067,2.926 C 5.115,0.976 2.557,0 0,0" /></g><g
         transform="translate(483.958,879.0605)"
         id="g388"
         style="stroke:none;stroke-opacity:1;fill-opacity:1;fill:#ffffff;stroke-width:0.99975002;stroke-miterlimit:4;stroke-dasharray:none"
         inkscape:export-xdpi="50"
         inkscape:export-ydpi="50"><path
           inkscape:connector-curvature="0"
           id="path390"
           style="fill:#ffffff;fill-opacity:1;fill-rule:nonzero;stroke:none;stroke-opacity:1;stroke-width:0.99975002;stroke-miterlimit:4;stroke-dasharray:none"
           d="m 0,0 c -2.561,0 -5.122,0.978 -7.075,2.933 -3.903,3.907 -3.9,10.238 0.008,14.141 L 8.725,32.851 c 3.907,3.902 10.238,3.9 14.142,-0.007 3.903,-3.907 3.9,-10.239 -0.008,-14.142 L 7.067,2.926 C 5.115,0.976 2.558,0 0,0" /></g><g
         transform="translate(598.958,894.0605)"
         id="g392"
         style="stroke:none;stroke-opacity:1;fill-opacity:1;fill:#ffffff;stroke-width:0.99975002;stroke-miterlimit:4;stroke-dasharray:none"
         inkscape:export-xdpi="50"
         inkscape:export-ydpi="50"><path
           inkscape:connector-curvature="0"
           id="path394"
           style="fill:#ffffff;fill-opacity:1;fill-rule:nonzero;stroke:none;stroke-opacity:1;stroke-width:0.99975002;stroke-miterlimit:4;stroke-dasharray:none"
           d="m 0,0 c -2.561,0 -5.122,0.978 -7.075,2.933 -3.903,3.907 -3.9,10.238 0.008,14.141 L 8.725,32.851 c 3.907,3.902 10.239,3.9 14.142,-0.007 3.903,-3.907 3.9,-10.239 -0.008,-14.142 L 7.067,2.926 C 5.115,0.976 2.558,0 0,0" /></g><g
         transform="translate(639.958,876.0605)"
         id="g396"
         style="stroke:none;stroke-opacity:1;fill-opacity:1;fill:#ffffff;stroke-width:0.99975002;stroke-miterlimit:4;stroke-dasharray:none"
         inkscape:export-xdpi="50"
         inkscape:export-ydpi="50"><path
           inkscape:connector-curvature="0"
           id="path398"
           style="fill:#ffffff;fill-opacity:1;fill-rule:nonzero;stroke:none;stroke-opacity:1;stroke-width:0.99975002;stroke-miterlimit:4;stroke-dasharray:none"
           d="m 0,0 c -2.561,0 -5.122,0.978 -7.075,2.933 -3.903,3.907 -3.9,10.238 0.008,14.141 l 51.992,51.94 c 3.907,3.903 10.239,3.9 14.142,-0.007 C 62.97,65.1 62.967,58.769 59.06,54.865 L 7.067,2.926 C 5.115,0.976 2.557,0 0,0" /></g><g
         transform="translate(716.0796,963.9092)"
         id="g400"
         style="stroke:none;stroke-opacity:1;fill-opacity:1;fill:#ffffff;stroke-width:0.99975002;stroke-miterlimit:4;stroke-dasharray:none"
         inkscape:export-xdpi="50"
         inkscape:export-ydpi="50"><path
           inkscape:connector-curvature="0"
           id="path402"
           style="fill:#ffffff;fill-opacity:1;fill-rule:nonzero;stroke:none;stroke-opacity:1;stroke-width:0.99975002;stroke-miterlimit:4;stroke-dasharray:none"
           d="m 0,0 -10.084,0.004 c -5.523,0.002 -9.998,4.481 -9.996,10.004 0.002,5.521 4.479,9.996 10,9.996 h 0.004 L -0.044,20 c 13.213,0.144 25.585,5.386 34.838,14.766 9.27,9.398 14.376,21.894 14.376,35.187 0,27.566 -22.493,49.992 -50.141,49.992 -1.261,0 -2.646,-0.086 -3.578,-0.15 -2.654,-0.193 -5.274,0.696 -7.277,2.449 -2.003,1.752 -3.225,4.231 -3.396,6.886 -2.892,45.097 -40.611,80.423 -85.871,80.423 -30.348,0 -57.873,-15.51 -73.629,-41.49 -1.595,-2.629 -4.312,-4.379 -7.366,-4.744 -3.054,-0.36 -6.106,0.698 -8.275,2.878 -5.22,5.25 -12.176,8.141 -19.583,8.141 -15.227,0 -27.615,-12.386 -27.615,-27.61 0,-4.347 0.985,-8.51 2.928,-12.374 1.527,-3.038 1.406,-6.643 -0.32,-9.572 -1.727,-2.928 -4.823,-4.779 -8.22,-4.913 -26.863,-1.06 -47.906,-22.966 -47.906,-49.868 0,-27.521 22.303,-49.91 49.716,-49.91 h 12.283 c 5.523,0 10,-4.478 10,-10 0,-5.523 -4.477,-10 -10,-10 h -12.283 c -38.441,0 -69.716,31.361 -69.716,69.91 0,33.276 22.989,61.095 54.281,68.169 -0.508,2.798 -0.763,5.655 -0.763,8.558 0,26.252 21.36,47.61 47.615,47.61 8.724,0 17.084,-2.326 24.377,-6.687 19.983,26.425 50.82,41.902 84.476,41.902 52.598,0 96.935,-38.73 104.809,-89.762 C 40.216,137.377 69.17,106.976 69.17,69.953 69.17,51.37 62.019,33.886 49.032,20.721 36.031,7.542 18.654,0.183 0.102,0.001 0.068,0 0.034,0 0,0" /></g></g></g></svg>